<svg xmlns="http://www.w3.org/2000/svg" xmlns:xlink="http://www.w3.org/1999/xlink" width="24" height="15.6" viewBox="0 0 24 15.6"><defs><symbol id="a" viewBox="0 0 40 26"><path fill="#ed2939" d="M0 0h40v13h-40z"/><path fill="#fff" d="M0 13h40v13h-40zM5.818 6.5a4.664 4.664 0 0 1 4.526-4.599 5.078 5.078 0 0 0-1.639-.29 4.952 4.952 0 0 0-5.014 4.889 4.952 4.952 0 0 0 5.014 4.889 5.079 5.079 0 0 0 1.639-.29 4.664 4.664 0 0 1-4.526-4.599zM9.326 6.618l-.681-.509-.681.51.262-.821-.683-.506.843.002.259-.823.259.823.843-.002-.683.507zM14.67 6.618l-.681-.509-.681.51.262-.821-.683-.506.843.002.259-.823.259.823.843-.002-.683.507zM12.001 4.684l-.681-.509-.681.51.262-.821-.683-.506.843.002.259-.823.259.823.843-.002-.683.507zM10.326 9.712l-.681-.509-.681.51.262-.821-.683-.506.843.002.259-.823.259.823.843-.002-.683.507zM13.67 9.712l-.681-.509-.681.51.262-.821-.683-.506.843.002.259-.823.259.823.843-.002-.683.507z"/></symbol></defs><title>アセット 64</title><use width="40" height="26" transform="scale(.6)" xlink:href="#a"/></svg>