<svg xmlns="http://www.w3.org/2000/svg" xmlns:xlink="http://www.w3.org/1999/xlink" width="24" height="15.6" viewBox="0 0 24 15.6"><defs><symbol id="a" viewBox="0 0 40 26"><path fill="#383f8e" d="M0 0h40v26h-40z"/><path fill="#f5f5f5" d="M20 11.867l-5.481-3.591h5.481v-3.448h-5.481l5.481-3.58v-1.248h-1.87l-6.406 4.185v-4.185h-3.448v4.185l-6.421-4.185h-1.855v1.257l5.481 3.571h-5.481v3.448h5.481l-5.481 3.61v1.114h2.076l6.2-4.082v4.082h3.448v-4.082l6.23 4.082h2.046v-1.133z"/><path fill="#d93f3e" d="M20 7.586v-2.069h-8.966v-5.517h-2.068v5.517h-8.966v2.069h8.966v5.414h2.068v-5.414h8.966zM7.586 4.828l-7.418-4.828h-.168v.725l6.319 4.103h1.267zM12.991 4.828l7.009-4.511v-.317h-.777l-7.499 4.828h1.267zM6.99 8.276l-6.99 4.554v.17h1.004l7.253-4.724h-1.267zM20 12.446l-6.469-4.17h-1.267l7.324 4.724h.412v-.554zM30.896 21.862a.14.14 0 0 1-.08-.026l-.816-.583-.816.583a.14.14 0 0 1-.08.026.138.138 0 0 1-.132-.18l.303-.956-.807-.595a.138.138 0 0 1 .081-.249l1.003-.008.317-.952a.138.138 0 0 1 .262 0l.317.952 1.003.008a.138.138 0 0 1 .081.249l-.807.595.303.956a.139.139 0 0 1-.051.154.14.14 0 0 1-.081.026z"/><path d="M30 18.966l.349 1.045 1.102.009-.886.654.332 1.05-.896-.641-.896.641.332-1.05-.886-.654 1.102-.009.349-1.045m0-.276a.276.276 0 0 0-.262.189l-.286.858-.905.007a.276.276 0 0 0-.162.498l.728.537-.273.862a.276.276 0 0 0 .424.308l.736-.526.736.526a.276.276 0 0 0 .423-.308l-.273-.862.728-.537a.276.276 0 0 0-.162-.498l-.905-.007-.286-.858a.276.276 0 0 0-.262-.189z" fill="#f5f5f5"/><path d="M30.896 10.744a.14.14 0 0 1-.08-.026l-.816-.584-.816.584a.14.14 0 0 1-.08.026.138.138 0 0 1-.132-.18l.303-.956-.807-.596a.138.138 0 0 1 .081-.249l1.003-.007.317-.952a.138.138 0 0 1 .262 0l.317.952 1.003.007a.138.138 0 0 1 .081.249l-.807.596.303.956a.139.139 0 0 1-.051.154.14.14 0 0 1-.081.026z" fill="#d93f3e"/><path d="M30 7.847l.349 1.045 1.102.009-.886.654.332 1.05-.896-.641-.896.641.332-1.05-.886-.654 1.102-.009.349-1.045m0-.276a.276.276 0 0 0-.262.189l-.286.858-.905.007a.276.276 0 0 0-.162.498l.728.537-.273.862a.276.276 0 0 0 .424.308l.736-.526.736.526a.276.276 0 0 0 .423-.308l-.273-.862.728-.537a.276.276 0 0 0-.162-.498l-.905-.007-.286-.858a.276.276 0 0 0-.262-.189z" fill="#f5f5f5"/><path d="M35.724 14.192a.14.14 0 0 1-.08-.026l-.816-.584-.816.584a.14.14 0 0 1-.08.026.138.138 0 0 1-.132-.18l.303-.956-.807-.596a.138.138 0 0 1 .081-.249l1.003-.007.317-.952a.138.138 0 0 1 .262 0l.317.952 1.003.007a.138.138 0 0 1 .081.249l-.807.596.303.956a.139.139 0 0 1-.051.154.141.141 0 0 1-.082.026z" fill="#d93f3e"/><path d="M34.828 11.295l.349 1.045 1.102.009-.886.654.332 1.05-.896-.641-.896.641.332-1.05-.886-.654 1.102-.009.349-1.045m0-.276a.276.276 0 0 0-.262.189l-.286.858-.905.007a.276.276 0 0 0-.162.498l.728.537-.273.862a.276.276 0 0 0 .423.308l.736-.526.736.526a.276.276 0 0 0 .424-.308l-.273-.862.728-.537a.276.276 0 0 0-.162-.498l-.905-.007-.286-.858a.276.276 0 0 0-.262-.189z" fill="#f5f5f5"/><path d="M26.069 15.571a.14.14 0 0 1-.08-.026l-.816-.584-.816.584a.14.14 0 0 1-.08.026.138.138 0 0 1-.132-.18l.303-.956-.807-.596a.138.138 0 0 1 .081-.249l1.003-.007.317-.952a.138.138 0 0 1 .262 0l.317.952 1.003.007a.138.138 0 0 1 .081.249l-.807.596.303.956a.138.138 0 0 1-.132.18z" fill="#d93f3e"/><path d="M25.172 12.674l.349 1.045 1.102.009-.886.654.332 1.05-.896-.641-.896.641.332-1.05-.886-.654 1.102-.009.349-1.045m0-.276a.276.276 0 0 0-.262.189l-.286.858-.905.007a.276.276 0 0 0-.162.498l.728.537-.273.862a.276.276 0 0 0 .423.308l.736-.526.736.526a.276.276 0 0 0 .423-.308l-.273-.862.728-.537a.276.276 0 0 0-.162-.498l-.905-.007-.286-.858a.276.276 0 0 0-.262-.189z" fill="#f5f5f5"/></symbol></defs><title>アセット 60</title><use width="40" height="26" transform="scale(.6)" xlink:href="#a"/></svg>