<svg xmlns="http://www.w3.org/2000/svg" xmlns:xlink="http://www.w3.org/1999/xlink" width="24" height="15.6" viewBox="0 0 24 15.6"><defs><symbol id="a" viewBox="0 0 40 26"><path fill="#d93f3e" d="M0 0h40v26h-40z"/><path d="M13.9 18.379a5.252 5.252 0 1 1 0-10.502 5.342 5.342 0 0 1 4.774 2.908 6.887 6.887 0 0 0-6.481-4.681 6.859 6.859 0 0 0-6.765 7.024 6.642 6.642 0 0 0 6.765 6.769 6.664 6.664 0 0 0 6.481-4.426 5.342 5.342 0 0 1-4.774 2.908zM20.371 10.848l.969 1.198 1.447-.529a.208.208 0 0 1 .245.308l-.84 1.291.95 1.213a.208.208 0 0 1-.217.328l-1.488-.4-.86 1.278a.208.208 0 0 1-.38-.105l-.08-1.538-1.481-.423a.208.208 0 0 1-.017-.393l1.438-.551-.056-1.539a.208.208 0 0 1 .369-.138z" fill="#fff"/></symbol></defs><title>アセット 66</title><use width="40" height="26" transform="scale(.6)" xlink:href="#a"/></svg>