<svg xmlns="http://www.w3.org/2000/svg" xmlns:xlink="http://www.w3.org/1999/xlink" width="24" height="15.6" viewBox="0 0 24 15.6"><defs><symbol id="a" viewBox="0 0 40 26"><path fill="#e64b39" d="M0 0h40v26h-40z"/><path d="M6.641 4.098l.657 1.971 2.078.016a.28.28 0 0 1 .164.505l-1.672 1.234.627 1.981a.28.28 0 0 1-.43.312l-1.691-1.209-1.691 1.208a.28.28 0 0 1-.43-.312l.627-1.981-1.672-1.234a.28.28 0 0 1 .164-.505l2.078-.016.657-1.971a.28.28 0 0 1 .531 0zM14.187 4.584l.471.643.761-.238a.107.107 0 0 1 .119.165l-.466.647.461.65a.107.107 0 0 1-.12.164l-.759-.243-.476.64a.107.107 0 0 1-.194-.064l-.004-.797-.755-.255a.107.107 0 0 1 .001-.204l.757-.25.009-.797a.107.107 0 0 1 .194-.062zM11.317 2.668l.793.086.338-.722a.107.107 0 0 1 .202.024l.163.78.791.098a.107.107 0 0 1 .04.2l-.692.396.151.783a.107.107 0 0 1-.178.1l-.591-.536-.698.385a.107.107 0 0 1-.15-.138l.327-.727-.582-.545a.107.107 0 0 1 .085-.185zM12.57 10.394l-.471.643-.761-.238a.107.107 0 0 0-.119.165l.466.647-.461.65a.107.107 0 0 0 .12.164l.759-.243.476.64a.107.107 0 0 0 .194-.064l.004-.797.755-.255a.107.107 0 0 0-.001-.204l-.757-.25-.009-.797a.107.107 0 0 0-.194-.062zM15.44 8.593l-.793.086-.338-.722a.107.107 0 0 0-.202.024l-.163.78-.791.098a.107.107 0 0 0-.04.2l.692.396-.151.783a.107.107 0 0 0 .178.1l.591-.536.698.385a.107.107 0 0 0 .15-.138l-.327-.727.582-.545a.107.107 0 0 0-.085-.185z" fill="#fedc41"/></symbol></defs><title>アセット 47</title><use width="40" height="26" transform="scale(.6)" xlink:href="#a"/></svg>