<svg xmlns="http://www.w3.org/2000/svg" xmlns:xlink="http://www.w3.org/1999/xlink" width="24" height="15.6" viewBox="0 0 24 15.6"><defs><symbol id="a" viewBox="0 0 40 26"><path fill="#0048aa" d="M0 0h40v26h-40z"/><path d="M20.112 2.862l.277.829.874.007a.118.118 0 0 1 .069.212l-.703.519.264.833a.118.118 0 0 1-.181.131l-.711-.508-.711.508a.118.118 0 0 1-.181-.131l.264-.833-.703-.519a.118.118 0 0 1 .069-.212l.874-.007.277-.829a.118.118 0 0 1 .223 0zM20.112 20.664l.277.829.874.007a.118.118 0 0 1 .069.212l-.703.519.264.833a.118.118 0 0 1-.181.131l-.711-.508-.711.508a.118.118 0 0 1-.181-.131l.264-.833-.703-.519a.118.118 0 0 1 .069-.212l.874-.007.277-.829a.118.118 0 0 1 .223 0zM29.013 11.763l.277.829.874.007a.118.118 0 0 1 .069.212l-.703.519.264.833a.118.118 0 0 1-.181.131l-.711-.508-.711.508a.118.118 0 0 1-.181-.131l.264-.833-.703-.519a.118.118 0 0 1 .069-.212l.874-.007.277-.829a.118.118 0 0 1 .223 0zM11.211 11.763l.277.829.874.007a.118.118 0 0 1 .069.212l-.703.519.264.833a.118.118 0 0 1-.181.131l-.711-.508-.711.508a.118.118 0 0 1-.181-.131l.264-.833-.703-.519a.118.118 0 0 1 .069-.212l.874-.007.277-.829a.118.118 0 0 1 .223 0zM12.547 7.115l.277.829.874.007a.118.118 0 0 1 .069.212l-.703.519.264.833a.118.118 0 0 1-.181.131l-.711-.508-.711.508a.118.118 0 0 1-.181-.131l.264-.833-.703-.519a.118.118 0 0 1 .069-.212l.874-.007.277-.829a.118.118 0 0 1 .223 0zM27.964 16.016l.277.829.874.007a.118.118 0 0 1 .069.212l-.703.519.264.833a.118.118 0 0 1-.181.131l-.711-.508-.711.508a.118.118 0 0 1-.181-.131l.264-.833-.703-.519a.118.118 0 0 1 .069-.212l.874-.007.277-.829a.118.118 0 0 1 .223 0zM24.706 3.857l.277.829.874.007a.118.118 0 0 1 .069.212l-.703.519.264.833a.118.118 0 0 1-.181.131l-.711-.508-.711.508a.118.118 0 0 1-.181-.131l.264-.833-.703-.519a.118.118 0 0 1 .069-.212l.874-.007.277-.829a.118.118 0 0 1 .223 0zM15.805 19.274l.277.829.874.007a.118.118 0 0 1 .069.212l-.703.519.264.833a.118.118 0 0 1-.181.131l-.711-.508-.711.508a.118.118 0 0 1-.181-.131l.264-.833-.703-.519a.118.118 0 0 1 .069-.212l.874-.007.277-.829a.118.118 0 0 1 .223 0zM27.74 7.115l-.277.829-.874.007a.118.118 0 0 0-.069.212l.703.519-.264.833a.118.118 0 0 0 .181.131l.711-.508.711.508a.118.118 0 0 0 .181-.131l-.264-.833.703-.519a.118.118 0 0 0-.069-.212l-.874-.007-.277-.829a.118.118 0 0 0-.223 0zM12.324 16.016l-.277.829-.874.007a.118.118 0 0 0-.069.212l.703.519-.264.833a.118.118 0 0 0 .181.131l.711-.508.711.508a.118.118 0 0 0 .181-.131l-.264-.833.703-.519a.118.118 0 0 0-.069-.212l-.874-.007-.277-.829a.118.118 0 0 0-.223 0zM15.582 3.857l-.277.829-.874.007a.118.118 0 0 0-.069.212l.703.519-.264.833a.118.118 0 0 0 .181.131l.711-.508.711.508a.118.118 0 0 0 .181-.131l-.264-.833.703-.519a.118.118 0 0 0-.069-.212l-.874-.007-.276-.829a.118.118 0 0 0-.223 0zM24.482 19.274l-.277.829-.874.007a.118.118 0 0 0-.069.212l.703.519-.264.833a.118.118 0 0 0 .181.131l.711-.508.711.508a.118.118 0 0 0 .181-.131l-.264-.833.703-.519a.118.118 0 0 0-.069-.212l-.874-.007-.277-.829a.118.118 0 0 0-.223 0z" fill="#fedc41"/></symbol></defs><title>アセット 49</title><use width="40" height="26" transform="scale(.6)" xlink:href="#a"/></svg>