<svg xmlns="http://www.w3.org/2000/svg" xmlns:xlink="http://www.w3.org/1999/xlink" width="24" height="15.6" viewBox="0 0 24 15.6"><defs><symbol id="a" viewBox="0 0 40 26"><path fill="#f5f5f5" d="M0 0h40v26h-40z"/><path fill="#d93f3e" d="M0 0h40v2h-40zM0 4h40v2h-40zM0 8h40v2h-40zM0 12h40v2h-40zM0 16h40v2h-40zM0 20h40v2h-40zM0 24h40v2h-40z"/><path fill="#293275" d="M0 0h20v14h-20z"/><path d="M1.981 1.048l.166.498.525.004a.071.071 0 0 1 .041.128l-.422.312.158.5a.071.071 0 0 1-.109.079l-.427-.305-.427.305a.071.071 0 0 1-.109-.079l.158-.5-.422-.312a.071.071 0 0 1 .041-.128l.525-.004.166-.498a.071.071 0 0 1 .134 0zM1.981 3.653l.166.498.525.004a.071.071 0 0 1 .041.128l-.422.312.158.5a.071.071 0 0 1-.109.079l-.427-.305-.427.305a.071.071 0 0 1-.109-.079l.158-.5-.422-.312a.071.071 0 0 1 .041-.128l.525-.004.166-.498a.071.071 0 0 1 .134 0zM1.981 6.257l.166.498.525.004a.071.071 0 0 1 .041.128l-.422.312.158.5a.071.071 0 0 1-.109.079l-.427-.305-.427.305a.071.071 0 0 1-.109-.079l.158-.5-.422-.312a.071.071 0 0 1 .041-.128l.525-.004.166-.498a.071.071 0 0 1 .134 0zM1.981 8.862l.166.498.525.004a.071.071 0 0 1 .041.128l-.422.312.158.5a.071.071 0 0 1-.109.079l-.427-.305-.427.305a.071.071 0 0 1-.109-.079l.158-.5-.422-.312a.071.071 0 0 1 .041-.128l.525-.004.166-.498a.071.071 0 0 1 .134 0zM1.981 11.466l.166.498.525.004a.071.071 0 0 1 .041.128l-.422.312.158.5a.071.071 0 0 1-.109.079l-.427-.305-.427.305a.071.071 0 0 1-.109-.079l.158-.5-.422-.312a.071.071 0 0 1 .041-.128l.525-.004.166-.498a.071.071 0 0 1 .134 0zM4.003 2.325l.166.498.525.004a.071.071 0 0 1 .041.128l-.422.312.158.5a.071.071 0 0 1-.109.079l-.427-.305-.427.305a.071.071 0 0 1-.109-.079l.158-.5-.422-.312a.071.071 0 0 1 .041-.128l.525-.004.166-.498a.071.071 0 0 1 .134 0zM4.003 4.93l.166.498.525.004a.071.071 0 0 1 .041.128l-.422.312.158.5a.071.071 0 0 1-.109.079l-.427-.305-.427.305a.071.071 0 0 1-.109-.079l.158-.5-.422-.312a.071.071 0 0 1 .041-.128l.525-.004.166-.498a.071.071 0 0 1 .134 0zM4.003 7.534l.166.498.525.004a.071.071 0 0 1 .041.128l-.422.312.158.5a.071.071 0 0 1-.109.079l-.427-.305-.427.305a.071.071 0 0 1-.109-.079l.158-.5-.422-.312a.071.071 0 0 1 .041-.128l.525-.004.166-.498a.071.071 0 0 1 .134 0zM4.003 10.138l.166.498.525.004a.071.071 0 0 1 .041.128l-.422.312.158.5a.071.071 0 0 1-.109.079l-.427-.305-.427.305a.071.071 0 0 1-.109-.079l.158-.5-.422-.312a.071.071 0 0 1 .041-.128l.525-.004.166-.498a.071.071 0 0 1 .134 0zM6.024 1.048l.166.498.525.004a.071.071 0 0 1 .041.128l-.422.312.158.5a.071.071 0 0 1-.109.079l-.427-.305-.427.305a.071.071 0 0 1-.109-.079l.158-.5-.422-.312a.071.071 0 0 1 .041-.128l.525-.004.166-.498a.071.071 0 0 1 .134 0zM6.024 3.653l.166.498.525.004a.071.071 0 0 1 .041.128l-.422.312.158.5a.071.071 0 0 1-.109.079l-.427-.305-.427.305a.071.071 0 0 1-.109-.079l.158-.5-.422-.312a.071.071 0 0 1 .041-.128l.525-.004.166-.498a.071.071 0 0 1 .134 0zM6.024 6.257l.166.498.525.004a.071.071 0 0 1 .041.128l-.422.312.158.5a.071.071 0 0 1-.109.079l-.427-.305-.427.305a.071.071 0 0 1-.109-.079l.158-.5-.422-.312a.071.071 0 0 1 .041-.128l.525-.004.166-.498a.071.071 0 0 1 .134 0zM6.024 8.862l.166.498.525.004a.071.071 0 0 1 .041.128l-.422.312.158.5a.071.071 0 0 1-.109.079l-.427-.305-.427.305a.071.071 0 0 1-.109-.079l.158-.5-.422-.312a.071.071 0 0 1 .041-.128l.525-.004.166-.498a.071.071 0 0 1 .134 0zM6.024 11.466l.166.498.525.004a.071.071 0 0 1 .041.128l-.422.312.158.5a.071.071 0 0 1-.109.079l-.427-.305-.427.305a.071.071 0 0 1-.109-.079l.158-.5-.422-.312a.071.071 0 0 1 .041-.128l.525-.004.166-.498a.071.071 0 0 1 .134 0zM8.046 2.325l.166.498.525.004a.071.071 0 0 1 .041.128l-.422.312.158.5a.071.071 0 0 1-.109.079l-.427-.305-.427.305a.071.071 0 0 1-.109-.079l.158-.5-.422-.312a.071.071 0 0 1 .041-.128l.525-.004.166-.498a.071.071 0 0 1 .134 0zM8.046 4.93l.166.498.525.004a.071.071 0 0 1 .041.128l-.422.312.158.5a.071.071 0 0 1-.109.079l-.427-.305-.427.305a.071.071 0 0 1-.109-.079l.158-.5-.422-.312a.071.071 0 0 1 .041-.128l.525-.004.166-.498a.071.071 0 0 1 .134 0zM8.046 7.534l.166.498.525.004a.071.071 0 0 1 .041.128l-.422.312.158.5a.071.071 0 0 1-.109.079l-.427-.305-.427.305a.071.071 0 0 1-.109-.079l.158-.5-.422-.312a.071.071 0 0 1 .041-.128l.525-.004.166-.498a.071.071 0 0 1 .134 0zM8.046 10.138l.166.498.525.004a.071.071 0 0 1 .041.128l-.422.312.158.5a.071.071 0 0 1-.109.079l-.427-.305-.427.305a.071.071 0 0 1-.109-.079l.158-.5-.422-.312a.071.071 0 0 1 .041-.128l.525-.004.166-.498a.071.071 0 0 1 .134 0zM10.067 1.048l.166.498.525.004a.071.071 0 0 1 .041.128l-.422.312.158.5a.071.071 0 0 1-.109.079l-.427-.305-.427.305a.071.071 0 0 1-.109-.079l.158-.5-.422-.312a.071.071 0 0 1 .041-.128l.525-.004.166-.498a.071.071 0 0 1 .134 0zM10.067 3.653l.166.498.525.004a.071.071 0 0 1 .041.128l-.422.312.158.5a.071.071 0 0 1-.109.079l-.427-.305-.427.305a.071.071 0 0 1-.109-.079l.158-.5-.422-.312a.071.071 0 0 1 .041-.128l.525-.004.166-.498a.071.071 0 0 1 .134 0zM10.067 6.257l.166.498.525.004a.071.071 0 0 1 .041.128l-.422.312.158.5a.071.071 0 0 1-.109.079l-.427-.305-.427.305a.071.071 0 0 1-.109-.079l.158-.5-.422-.312a.071.071 0 0 1 .041-.128l.525-.004.166-.498a.071.071 0 0 1 .134 0zM10.067 8.862l.166.498.525.004a.071.071 0 0 1 .041.128l-.422.312.158.5a.071.071 0 0 1-.109.079l-.427-.305-.427.305a.071.071 0 0 1-.109-.079l.158-.5-.422-.312a.071.071 0 0 1 .041-.128l.525-.004.166-.498a.071.071 0 0 1 .134 0zM10.067 11.466l.166.498.525.004a.071.071 0 0 1 .041.128l-.422.312.158.5a.071.071 0 0 1-.109.079l-.427-.305-.427.305a.071.071 0 0 1-.109-.079l.158-.5-.422-.312a.071.071 0 0 1 .041-.128l.525-.004.166-.498a.071.071 0 0 1 .134 0zM12.088 2.325l.166.498.525.004a.071.071 0 0 1 .041.128l-.422.312.158.5a.071.071 0 0 1-.109.079l-.427-.305-.427.305a.071.071 0 0 1-.109-.079l.158-.5-.422-.312a.071.071 0 0 1 .041-.128l.525-.004.166-.498a.071.071 0 0 1 .134 0zM12.088 4.93l.166.498.525.004a.071.071 0 0 1 .041.128l-.422.312.158.5a.071.071 0 0 1-.109.079l-.427-.305-.427.305a.071.071 0 0 1-.109-.079l.158-.5-.422-.312a.071.071 0 0 1 .041-.128l.525-.004.166-.498a.071.071 0 0 1 .134 0zM12.088 7.534l.166.498.525.004a.071.071 0 0 1 .041.128l-.422.312.158.5a.071.071 0 0 1-.109.079l-.427-.305-.427.305a.071.071 0 0 1-.109-.079l.158-.5-.422-.312a.071.071 0 0 1 .041-.128l.525-.004.166-.498a.071.071 0 0 1 .134 0zM12.088 10.138l.166.498.525.004a.071.071 0 0 1 .041.128l-.422.312.158.5a.071.071 0 0 1-.109.079l-.427-.305-.427.305a.071.071 0 0 1-.109-.079l.158-.5-.422-.312a.071.071 0 0 1 .041-.128l.525-.004.166-.498a.071.071 0 0 1 .134 0zM14.11 1.048l.166.498.525.004a.071.071 0 0 1 .041.128l-.422.312.158.5a.071.071 0 0 1-.109.079l-.427-.305-.427.305a.071.071 0 0 1-.109-.079l.158-.5-.422-.312a.071.071 0 0 1 .041-.128l.525-.004.166-.498a.071.071 0 0 1 .134 0zM14.11 3.653l.166.498.525.004a.071.071 0 0 1 .041.128l-.422.312.158.5a.071.071 0 0 1-.109.079l-.427-.305-.427.305a.071.071 0 0 1-.109-.079l.158-.5-.422-.312a.071.071 0 0 1 .041-.128l.525-.004.166-.498a.071.071 0 0 1 .134 0zM14.11 6.257l.166.498.525.004a.071.071 0 0 1 .041.128l-.422.312.158.5a.071.071 0 0 1-.109.079l-.427-.305-.427.305a.071.071 0 0 1-.109-.079l.158-.5-.422-.312a.071.071 0 0 1 .041-.128l.525-.004.166-.498a.071.071 0 0 1 .134 0zM14.11 8.862l.166.498.525.004a.071.071 0 0 1 .041.128l-.422.312.158.5a.071.071 0 0 1-.109.079l-.427-.305-.427.305a.071.071 0 0 1-.109-.079l.158-.5-.422-.312a.071.071 0 0 1 .041-.128l.525-.004.166-.498a.071.071 0 0 1 .134 0zM14.11 11.466l.166.498.525.004a.071.071 0 0 1 .041.128l-.422.312.158.5a.071.071 0 0 1-.109.079l-.427-.305-.427.305a.071.071 0 0 1-.109-.079l.158-.5-.422-.312a.071.071 0 0 1 .041-.128l.525-.004.166-.498a.071.071 0 0 1 .134 0zM16.131 2.325l.166.498.525.004a.071.071 0 0 1 .041.128l-.422.312.158.5a.071.071 0 0 1-.109.079l-.427-.305-.427.305a.071.071 0 0 1-.109-.079l.158-.5-.422-.312a.071.071 0 0 1 .041-.128l.525-.004.166-.498a.071.071 0 0 1 .134 0zM16.131 4.93l.166.498.525.004a.071.071 0 0 1 .041.128l-.422.312.158.5a.071.071 0 0 1-.109.079l-.427-.305-.427.305a.071.071 0 0 1-.109-.079l.158-.5-.422-.312a.071.071 0 0 1 .041-.128l.525-.004.166-.498a.071.071 0 0 1 .134 0zM16.131 7.534l.166.498.525.004a.071.071 0 0 1 .041.128l-.422.312.158.5a.071.071 0 0 1-.109.079l-.427-.305-.427.305a.071.071 0 0 1-.109-.079l.158-.5-.422-.312a.071.071 0 0 1 .041-.128l.525-.004.166-.498a.071.071 0 0 1 .134 0zM16.131 10.138l.166.498.525.004a.071.071 0 0 1 .041.128l-.422.312.158.5a.071.071 0 0 1-.109.079l-.427-.305-.427.305a.071.071 0 0 1-.109-.079l.158-.5-.422-.312a.071.071 0 0 1 .041-.128l.525-.004.166-.498a.071.071 0 0 1 .134 0zM18.153 1.048l.166.498.525.004a.071.071 0 0 1 .041.128l-.422.312.158.5a.071.071 0 0 1-.109.079l-.427-.305-.427.305a.071.071 0 0 1-.109-.079l.158-.5-.422-.312a.071.071 0 0 1 .041-.128l.525-.004.166-.498a.071.071 0 0 1 .134 0zM18.153 3.653l.166.498.525.004a.071.071 0 0 1 .041.128l-.422.312.158.5a.071.071 0 0 1-.109.079l-.427-.305-.427.305a.071.071 0 0 1-.109-.079l.158-.5-.422-.312a.071.071 0 0 1 .041-.128l.525-.004.166-.498a.071.071 0 0 1 .134 0zM18.153 6.257l.166.498.525.004a.071.071 0 0 1 .041.128l-.422.312.158.5a.071.071 0 0 1-.109.079l-.427-.305-.427.305a.071.071 0 0 1-.109-.079l.158-.5-.422-.312a.071.071 0 0 1 .041-.128l.525-.004.166-.498a.071.071 0 0 1 .134 0zM18.153 8.862l.166.498.525.004a.071.071 0 0 1 .041.128l-.422.312.158.5a.071.071 0 0 1-.109.079l-.427-.305-.427.305a.071.071 0 0 1-.109-.079l.158-.5-.422-.312a.071.071 0 0 1 .041-.128l.525-.004.166-.498a.071.071 0 0 1 .134 0zM18.153 11.466l.166.498.525.004a.071.071 0 0 1 .041.128l-.422.312.158.5a.071.071 0 0 1-.109.079l-.427-.305-.427.305a.071.071 0 0 1-.109-.079l.158-.5-.422-.312a.071.071 0 0 1 .041-.128l.525-.004.166-.498a.071.071 0 0 1 .134 0z" fill="#f5f5f5"/></symbol></defs><title>アセット 68</title><use width="40" height="26" transform="scale(.6)" xlink:href="#a"/></svg>