<svg xmlns="http://www.w3.org/2000/svg" xmlns:xlink="http://www.w3.org/1999/xlink" width="24" height="15.6" viewBox="0 0 24 15.6"><defs><symbol id="a" viewBox="0 0 40 26"><path fill="#f5f5f5" d="M0 0h40v26h-40z"/><path fill="#f23a2d" d="M0 0h9v26h-9zM31 0h9v26h-9zM24.184 15.598l4.092-2.338-.939-.47a.69.69 0 0 1-.375-.708l.306-2.291-1.733.504a.69.69 0 0 1-.866-.513l-.166-.75-1.627 1.904a.342.342 0 0 1-.596-.28l.695-4.04-1.064.291a.689.689 0 0 1-.79-.341l-1.12-2.099v-.003l-.001.002-.001-.002v.003l-1.12 2.099a.69.69 0 0 1-.79.341l-1.064-.291.695 4.04a.342.342 0 0 1-.596.28l-1.627-1.904-.166.75a.69.69 0 0 1-.866.513l-1.733-.504.306 2.291a.69.69 0 0 1-.375.708l-.939.47 4.092 2.339a.996.996 0 0 1 .439 1.213l-.35.936 3.507-.299a.326.326 0 0 1 .354.334l-.11 3.753h.69l-.111-3.754a.326.326 0 0 1 .354-.334l3.508.3-.35-.936a.996.996 0 0 1 .439-1.213z"/></symbol></defs><title>アセット 44</title><use width="40" height="26" transform="scale(.6)" xlink:href="#a"/></svg>