<svg xmlns="http://www.w3.org/2000/svg" xmlns:xlink="http://www.w3.org/1999/xlink" width="24" height="15.6" viewBox="0 0 24 15.6"><defs><symbol id="a" viewBox="0 0 40 26"><path fill="#fe0000" d="M0 0h40v26h-40z"/><path fill="#000095" d="M0 0h20v13.333h-20z"/><path d="M12.494 7.335l2.506-.668-2.506-.668 1.836-1.832-2.504.674.674-2.504-1.832 1.836-.668-2.506-.668 2.506-1.832-1.836.674 2.504-2.504-.674 1.836 1.832-2.506.668 2.506.668-1.836 1.832 2.504-.674-.674 2.504 1.832-1.836.668 2.506.668-2.506 1.832 1.836-.674-2.504 2.504.674zm-2.16.576l-.334.089-.334-.089-.333-.09-.244-.244-.244-.244-.09-.333-.089-.334.089-.334.09-.333.244-.244.244-.244.333-.09.334-.089.334.089.333.09.244.244.244.244.09.333.089.334-.089.334-.09.333-.244.244-.244.244z" fill="#fff"/><circle cx="10" cy="6.667" r="2.833" fill="#000095"/><circle cx="10" cy="6.667" r="2.5" fill="#fff"/></symbol></defs><title>アセット 67</title><use width="40" height="26" transform="scale(.6)" xlink:href="#a"/></svg>