<svg xmlns="http://www.w3.org/2000/svg" xmlns:xlink="http://www.w3.org/1999/xlink" width="24" height="15.6" viewBox="0 0 24 15.6"><defs><symbol id="a" viewBox="0 0 40 26"><path fill="#009b3a" d="M0 0h40v26h-40z"/><path d="M3.4 13l16.6 10.6 16.6-10.6-16.6-10.6z" fill="#fedf00"/><circle cx="20" cy="13" r="6.925" fill="#002776"/><path d="M13.665 10.2a6.897 6.897 0 0 0-.369 1.059 15.951 15.951 0 0 1 2.747-.238 15.768 15.768 0 0 1 10.568 4.046 6.897 6.897 0 0 0 .245-1.096 16.746 16.746 0 0 0-10.813-3.938 17.001 17.001 0 0 0-2.379.168z" fill="#fff"/><path d="M13.791 10.504a.342.342 0 0 0-.021.225.362.362 0 0 0 .125.219.321.321 0 0 0 .258.058.28.28 0 0 0 .225-.145.336.336 0 0 0 .024-.242.356.356 0 0 0-.107-.201.327.327 0 0 0-.277-.068.28.28 0 0 0-.225.153m.163.385a.301.301 0 0 1-.091-.166.273.273 0 0 1 .023-.205.205.205 0 0 1 .152-.091.221.221 0 0 1 .177.043.258.258 0 0 1 .096.167.32.32 0 0 1-.013.19.178.178 0 0 1-.152.105.237.237 0 0 1-.193-.043" fill="#009b3a"/><path d="M14.817 10.903l-.04-.269.2-.02a.199.199 0 0 1 .083.005.096.096 0 0 1 .06.079l.021.101a.265.265 0 0 0 .012.051l.012.018.109-.01-.004-.012a.059.059 0 0 1-.035-.036.4.4 0 0 1-.014-.053l-.015-.084a.137.137 0 0 0-.034-.075.148.148 0 0 0-.064-.034.15.15 0 0 0 .058-.064.138.138 0 0 0 .011-.095.158.158 0 0 0-.116-.137.349.349 0 0 0-.125-.009l-.302.03.096.622zm-.085-.552l.217-.022a.248.248 0 0 1 .075.006.101.101 0 0 1 .063.086.095.095 0 0 1-.022.092.2.2 0 0 1-.095.032l-.204.02zM15.786 10.831a.23.23 0 0 0 .225-.154.404.404 0 0 0 .02-.182.334.334 0 0 0-.087-.207.276.276 0 0 0-.218-.082l-.265.01.062.624zm-.229-.546l.157-.005a.19.19 0 0 1 .163.057.311.311 0 0 1 .068.178l-.001.064a.211.211 0 0 1-.029.099.148.148 0 0 1-.079.068.346.346 0 0 1-.073.013l-.157.006zM16.3 10.193l.028.622.486.006-.005-.077-.401-.003-.007-.211.361.005-.001-.074-.362-.004-.012-.187.389.002-.005-.074-.471-.005zM17.057 10.825l.003-.617.127.007.184.534.19-.513.123.009-.002.62-.084-.004.002-.369v-.062l.002-.095-.186.513-.088-.006-.184-.536v.09l.002.068-.004.365zM18.726 10.989l.475.081.008-.072-.388-.068.021-.205.357.059.005-.07-.352-.062.021-.182.379.064.009-.075-.465-.077-.07.607zM20.3 11.32l.052-.25.197.052a.169.169 0 0 0 .152-.014.161.161 0 0 0 .073-.105.175.175 0 0 0-.025-.141.219.219 0 0 0-.125-.083l-.282-.076-.13.594zm.334-.272a.146.146 0 0 1-.098 0l-.168-.048.044-.205.17.046a.243.243 0 0 1 .076.035.099.099 0 0 1 .031.102.082.082 0 0 1-.054.071" fill="#009b3a"/><path d="M21.012 11.528l.07-.253.189.064a.212.212 0 0 1 .074.036.094.094 0 0 1 .024.091l-.02.101a.234.234 0 0 0-.009.048l.001.02.102.034.002-.013a.058.058 0 0 1-.015-.045.185.185 0 0 1 .007-.051l.017-.082a.138.138 0 0 0 0-.079.156.156 0 0 0-.046-.055.143.143 0 0 0 .127-.11.159.159 0 0 0-.052-.168.384.384 0 0 0-.113-.058l-.284-.093-.159.581zm.141-.517l.203.068a.15.15 0 0 1 .066.036.086.086 0 0 1 .025.1.088.088 0 0 1-.055.068.166.166 0 0 1-.1-.009l-.194-.064zM21.859 11.279a.32.32 0 0 0-.127.175.361.361 0 0 0 .001.243.327.327 0 0 0 .192.171.301.301 0 0 0 .268-.007.327.327 0 0 0 .136-.188.315.315 0 0 0 .004-.217.328.328 0 0 0-.206-.193.284.284 0 0 0-.268.016m-.046.393a.263.263 0 0 1 .004-.179.244.244 0 0 1 .119-.157.218.218 0 0 1 .174-.001.228.228 0 0 1 .134.121.269.269 0 0 1 .003.185.315.315 0 0 1-.106.151.179.179 0 0 1-.18.013.232.232 0 0 1-.147-.133M22.94 11.609a.39.39 0 0 1 .132.096.23.23 0 0 1 .05.205l-.081-.038a.15.15 0 0 0-.025-.116.256.256 0 0 0-.104-.082.187.187 0 0 0-.163-.005.254.254 0 0 0-.127.148.305.305 0 0 0-.017.182.206.206 0 0 0 .127.132.236.236 0 0 0 .152.018.19.19 0 0 0 .111-.118l-.188-.085.026-.063.262.118-.119.3-.052-.023.011-.082a.247.247 0 0 1-.098.024.297.297 0 0 1-.147-.032.325.325 0 0 1-.157-.148.329.329 0 0 1 .004-.26.326.326 0 0 1 .171-.186.294.294 0 0 1 .231.012" fill="#009b3a"/><path d="M23.311 12.47l.11-.234.18.095a.243.243 0 0 1 .068.047.095.095 0 0 1 .008.094l-.037.092-.018.046a.143.143 0 0 0-.005.022l.1.051.005-.012a.057.057 0 0 1-.01-.048.275.275 0 0 1 .016-.048l.032-.078a.154.154 0 0 0 .013-.076.144.144 0 0 0-.037-.062.161.161 0 0 0 .084-.019.145.145 0 0 0 .057-.069.147.147 0 0 0-.023-.17.319.319 0 0 0-.1-.073l-.269-.141-.254.542zm.225-.481l.191.101a.168.168 0 0 1 .06.044.09.09 0 0 1 .009.103.083.083 0 0 1-.07.057.158.158 0 0 1-.095-.025l-.182-.095zM23.937 12.805l.423.245.032-.063-.347-.201.097-.18.312.184.034-.062-.316-.183.087-.161.339.198.032-.064-.415-.244-.278.531zM24.653 13.007l.071.045a.15.15 0 0 0-.02.086.187.187 0 0 0 .102.137.291.291 0 0 0 .082.039.089.089 0 0 0 .114-.033.083.083 0 0 0 .01-.078.434.434 0 0 0-.073-.089l-.065-.065a.359.359 0 0 1-.083-.102.123.123 0 0 1 .003-.131.16.16 0 0 1 .118-.079.251.251 0 0 1 .174.052.318.318 0 0 1 .125.135.163.163 0 0 1-.013.165l-.07-.048a.127.127 0 0 0 .012-.079.189.189 0 0 0-.093-.117.166.166 0 0 0-.109-.034.08.08 0 0 0-.064.042.063.063 0 0 0 .001.075.543.543 0 0 0 .083.094l.068.066a.292.292 0 0 1 .068.09.159.159 0 0 1-.149.217.376.376 0 0 1-.178-.064.297.297 0 0 1-.132-.154.19.19 0 0 1 .02-.17M25.292 13.428l.068.048a.153.153 0 0 0-.023.086.196.196 0 0 0 .095.142.336.336 0 0 0 .08.043l.116-.027a.079.079 0 0 0 .012-.08.491.491 0 0 0-.068-.091l-.065-.068a.458.458 0 0 1-.078-.105.126.126 0 0 1 .013-.13.153.153 0 0 1 .122-.073.263.263 0 0 1 .171.06.364.364 0 0 1 .12.142.169.169 0 0 1-.024.162l-.066-.05a.121.121 0 0 0 .017-.077.182.182 0 0 0-.089-.12.172.172 0 0 0-.109-.043.096.096 0 0 0-.067.038.065.065 0 0 0 0 .077.543.543 0 0 0 .077.098l.066.07a.345.345 0 0 1 .062.091.132.132 0 0 1-.016.139.146.146 0 0 1-.145.074.406.406 0 0 1-.173-.075.277.277 0 0 1-.125-.162.181.181 0 0 1 .027-.167M26.146 13.669a.352.352 0 0 0-.249.351.326.326 0 0 0 .136.225.303.303 0 0 0 .26.075.318.318 0 0 0 .195-.132.325.325 0 0 0 .068-.204.333.333 0 0 0-.144-.244.297.297 0 0 0-.266-.07m-.164.356a.259.259 0 0 1 .058-.168.25.25 0 0 1 .162-.112.236.236 0 0 1 .171.057.221.221 0 0 1 .094.155.262.262 0 0 1-.054.176.281.281 0 0 1-.148.104.179.179 0 0 1-.182-.044.234.234 0 0 1-.101-.168" fill="#009b3a"/><path fill="#fff" d="M22.071 10.741h-.205l.166.124-.064.193.169-.12.168.127-.069-.2.171-.124h-.21l-.06-.187-.066.187zM21.826 12.567h-.148l.119.089-.045.14.121-.087.122.092-.05-.145.124-.089h-.152l-.044-.136-.047.136zM19.247 14.65h-.149l.12.089-.046.141.122-.087.122.091-.05-.145.124-.089h-.153l-.043-.136-.047.136zM23.383 16.744h-.148l.12.089-.046.14.122-.087.122.092-.05-.145.124-.089h-.152l-.044-.137-.048.137zM24.098 16.873h-.148l.119.089-.046.14.122-.087.122.091-.05-.144.124-.089h-.152l-.044-.137-.047.137zM25.764 15.424h-.148l.12.089-.046.141.122-.088.122.092-.05-.145.124-.089h-.153l-.043-.136-.048.136zM22.609 16.982h-.148l.12.089-.046.14.122-.087.122.092-.05-.145.124-.089h-.152l-.044-.136-.048.136zM23.403 18.123h-.148l.12.089-.046.14.122-.087.122.091-.05-.144.123-.089h-.151l-.044-.137-.048.137zM21.469 16.803h-.148l.119.089-.045.14.121-.087.122.092-.05-.145.124-.089h-.152l-.044-.136-.047.136zM16.121 15.97h-.148l.12.089-.046.14.122-.087.122.092-.05-.145.124-.089h-.152l-.044-.136-.048.136zM17.28 13.19h-.17l.138.102-.053.161.14-.099.14.105-.057-.167.142-.102h-.175l-.05-.157-.055.157zM14.026 15.194h-.17l.138.102-.053.161.14-.1.14.106-.057-.167.142-.102h-.175l-.05-.157-.055.157zM16.318 15.263h-.17l.137.103-.053.161.141-.1.14.105-.057-.166.142-.103h-.175l-.05-.156-.055.156zM19.929 14.008h-.17l.137.103-.052.16.14-.099.14.105-.057-.166.142-.103h-.175l-.05-.156-.055.156zM20.728 14.643h-.171l.138.103-.053.161.141-.1.14.105-.058-.166.142-.103h-.174l-.05-.157-.055.157zM25.078 15.957h-.171l.138.103-.052.161.14-.1.14.106-.057-.167.142-.103h-.175l-.05-.156-.055.156zM24.651 16.513h-.17l.138.103-.053.161.14-.1.14.105-.057-.166.142-.103h-.175l-.05-.156-.055.156zM23.401 17.416h-.17l.138.102-.053.161.14-.099.14.105-.057-.167.142-.102h-.175l-.05-.157-.055.157zM22.007 17.58h-.17l.138.102-.053.161.141-.1.139.105-.057-.166.143-.102h-.175l-.05-.157-.056.157zM19.956 18.375h-.078l.063.047-.024.074.064-.046.065.048-.026-.076.065-.047h-.081l-.023-.072-.025.072zM19.602 15.162h-.096l.078.058-.03.091.08-.057.078.06-.032-.094.081-.058h-.099l-.028-.089-.032.089zM15.575 14.189h-.096l.077.058-.029.091.079-.056.079.059-.033-.094.081-.058h-.099l-.028-.088-.031.088zM14.241 11.642h-.212l.171.128-.065.2.174-.124.175.131-.071-.207.177-.128h-.218l-.063-.195-.068.195zM14.856 14.549h-.212l.171.128-.065.2.175-.124.174.131-.071-.207.177-.128h-.218l-.062-.195-.069.195zM17.128 16.573h-.212l.171.127-.066.201.176-.124.174.13-.071-.207.177-.127h-.218l-.062-.195-.069.195zM19.916 16.007h-.212l.171.128-.066.2.175-.124.175.131-.072-.207.177-.128h-.218l-.062-.195-.068.195zM24.777 15.323h-.212l.171.127-.066.201.175-.124.175.13-.072-.207.177-.127h-.218l-.062-.195-.068.195z"/></symbol></defs><title>アセット 43</title><use width="40" height="26" transform="scale(.6)" xlink:href="#a"/></svg>