<svg xmlns="http://www.w3.org/2000/svg" xmlns:xlink="http://www.w3.org/1999/xlink" width="24" height="15.6" viewBox="0 0 24 15.6"><defs><symbol id="a" viewBox="0 0 40 26"><path fill="#f5f5f5" d="M0 0h40v26h-40z"/><path fill="#fab446" d="M0 0h40v8.5h-40z"/><path fill="#73af00" d="M0 17.5h40v8.5h-40z"/><path d="M20 16.707a3.707 3.707 0 1 1 3.707-3.707 3.711 3.711 0 0 1-3.707 3.707zm0-6.724a3.017 3.017 0 1 0 3.017 3.017 3.02 3.02 0 0 0-3.017-3.017z" fill="#41479b"/><circle cx="20" cy="13" r=".42" fill="#41479b"/><path fill="#41479b" d="M20 13.063l-1.068.108-2.294-.108v-.126l2.294-.108 1.068.108v.126zM20 13.063l1.068.108 2.294-.108v-.126l-2.294-.108-1.068.108v.126zM19.937 13l-.108-1.068.108-2.294h.126l.108 2.294-.108 1.068h-.126zM19.937 13l-.108 1.068.108 2.294h.126l.108-2.294-.108-1.068h-.126zM19.955 13.045l-.831-.679-1.546-1.699.089-.089 1.699 1.546.679.831-.09.09zM19.955 13.045l.679.831 1.699 1.546.089-.089-1.546-1.699-.831-.679-.09.09zM19.955 12.955l.679-.831 1.699-1.546.089.089-1.546 1.699-.831.679-.09-.09zM19.955 12.955l-.831.679-1.546 1.699.089.089 1.699-1.546.679-.831-.09-.09zM20.024 13.058l-.945.509-2.161.778-.048-.117 2.078-.977 1.028-.309.048.116zM20.024 13.058l1.028-.309 2.078-.977-.048-.117-2.161.778-.945.509.048.116zM19.942 13.024l-.509-.945-.778-2.161.117-.048.977 2.078.309 1.028-.116.048zM19.942 13.024l.309 1.028.977 2.078.117-.048-.778-2.161-.509-.945-.116.048zM19.976 13.058l-1.028-.309-2.078-.977.048-.117 2.161.778.945.509-.048.116zM19.976 13.058l.945.509 2.161.778.048-.117-2.078-.977-1.028-.309-.048.116zM19.942 12.976l.309-1.028.977-2.078.117.048-.778 2.161-.509.945-.116-.048zM19.942 12.976l-.509.945-.778 2.161.117.048.977-2.078.309-1.028-.116-.048z"/><circle cx="20" cy="13" r=".567" fill="#f5f5f5"/><circle cx="20" cy="13" r=".34" fill="#41479b"/></symbol></defs><title>アセット 54</title><use width="40" height="26" transform="scale(.6)" xlink:href="#a"/></svg>