<svg xmlns="http://www.w3.org/2000/svg" xmlns:xlink="http://www.w3.org/1999/xlink" width="24" height="15.6" viewBox="0 0 24 15.6"><defs><symbol id="a" viewBox="0 0 40 26"><path fill="#0038a8" d="M0 0h40v26h-40z"/><path fill="#ce1126" d="M0 13h40v13h-40z"/><path d="M22.517 13l-22.517 13v-26" fill="#fff"/><path d="M12.631 13.338l.338-.338-.338-.338-2.568.168-.017-.169 2.345-.309-.276-.276-2.087.415a2.585 2.585 0 0 0-.388-.937l1.769-1.182v-.39l-1.875 1.439-.108-.131 1.934-1.696v-.477h-.477l-1.696 1.934-.131-.108 1.439-1.875h-.39l-1.182 1.769a2.585 2.585 0 0 0-.937-.388l.415-2.087-.276-.276-.309 2.345-.169-.017.168-2.568-.338-.338-.338.338.168 2.568-.169.017-.309-2.345-.276.276.415 2.087a2.584 2.584 0 0 0-.937.388l-1.182-1.769h-.39l1.439 1.875-.131.108-1.696-1.934h-.477v.477l1.935 1.696-.108.131-1.875-1.439v.39l1.769 1.182a2.585 2.585 0 0 0-.388.937l-2.087-.415-.276.276 2.345.309-.017.169-2.568-.168-.338.338.338.338 2.568-.168.017.169-2.345.309.276.276 2.087-.415a2.583 2.583 0 0 0 .388.937l-1.769 1.182v.39l1.875-1.439.108.131-1.935 1.697v.477h.477l1.697-1.935.131.108-1.439 1.875h.39l1.182-1.769a2.583 2.583 0 0 0 .937.388l-.415 2.087.276.276.309-2.345.169.017-.168 2.568.338.338.338-.338-.168-2.568.169-.017.309 2.345.276-.276-.415-2.087a2.585 2.585 0 0 0 .937-.388l1.182 1.769h.39l-1.439-1.875.131-.108 1.696 1.935h.477v-.477l-1.934-1.697.108-.131 1.875 1.439v-.39l-1.769-1.182a2.584 2.584 0 0 0 .388-.937l2.087.415.276-.276-2.345-.309.017-.169zM18.33 12.66l-.021-1.034-.625.825-.99-.3.591.849-.591.849.99-.3.625.825.021-1.034.977-.34-.977-.34zM2.732 21.91l-1.03.087-.44-.936-.236 1.007-1.026.129.885.535-.194 1.016.782-.676.906.499-.401-.954.754-.707zM1.978 3.382l.401-.953-.906.499-.782-.676.194 1.016-.885.535 1.026.129.236 1.007.44-.936 1.03.087-.754-.708z" fill="#fcd116"/></symbol></defs><title>アセット 61</title><use width="40" height="26" transform="scale(.6)" xlink:href="#a"/></svg>