<svg xmlns="http://www.w3.org/2000/svg" xmlns:xlink="http://www.w3.org/1999/xlink" width="24" height="15.6" viewBox="0 0 24 15.6"><defs><symbol id="a" viewBox="0 0 40 26"><path fill="#fff" d="M0 0h40v26h-40z"/><path d="M23.193 10.988a3.316 3.316 0 0 0-3.193 2.156 3.316 3.316 0 0 1-3.193 2.156c-1.988 0-3.709-1.372-3.461-4.802a7.161 7.161 0 1 0 13.307 5.293c.249-3.43-1.472-4.803-3.46-4.803z" fill="#004a84"/><path d="M20 5.983a7.162 7.162 0 0 0-6.654 4.514c-.249 3.43 1.472 4.802 3.461 4.802a3.316 3.316 0 0 0 3.193-2.156 3.316 3.316 0 0 1 3.193-2.156c1.988 0 3.709 1.372 3.46 4.803a7.161 7.161 0 0 0-6.654-9.808z" fill="#d60029"/><path d="M9.418 10.33l3.663-5.394-.841-.571-3.662 5.394.84.571zM8.077 9.328l3.662-5.393-.841-.571-3.662 5.393.841.571zM6.735 8.327l3.662-5.394-.841-.571-3.662 5.394.841.571zM28.039 3.736l3.639 5.409.843-.567-3.639-5.409-.843.567zM9.418 15.67l3.663 5.394-.841.571-3.662-5.394.84-.571zM6.735 17.673l3.662 5.394-.841.57-3.662-5.393.841-.571zM27.452 4.041l-.843.567 1.64 2.437.839-.573-1.636-2.431zM30.249 10.017l.843-.568-1.544-2.294-.839.573 1.54 2.289zM30.312 2.297l-.843.567 1.544 2.295.839-.573-1.54-2.289zM33.108 8.273l.843-.567-1.64-2.437-.839.573 1.636 2.431zM8.077 16.672l-.841.571 1.603 2.36.834-.579-1.596-2.352zM9.302 20.284l1.596 2.352.841-.571-1.603-2.36-.834.579zM31.092 16.551l-.843-.568-1.529 2.273.834.58 1.538-2.285zM26.609 21.392l.843.567 1.642-2.439-.834-.58-1.651 2.452zM32.521 17.422l-.843-.567-1.585 2.357.834.58 1.594-2.37zM28.039 22.264l.843.567 1.586-2.356-.835-.58-1.594 2.369zM33.951 18.294l-.843-.567-1.641 2.44.834.58 1.65-2.453zM29.469 23.136l.843.567 1.529-2.273-.834-.58-1.538 2.286z"/></symbol></defs><title>アセット 57</title><use width="40" height="26" transform="scale(.6)" xlink:href="#a"/></svg>