<svg xmlns="http://www.w3.org/2000/svg" xmlns:xlink="http://www.w3.org/1999/xlink" width="24" height="15.6" viewBox="0 0 24 15.6"><defs><symbol id="a" viewBox="0 0 40 26"><path fill="#f5f5f5" d="M0 0h40v26h-40z"/><path fill="#f45a45" d="M40 8h-21.961l-9.906-8h31.867v8z"/><path fill="#354da1" d="M40 18h-21.961l-9.906 8h31.867v-8z"/><path fill="#464655" d="M0 4.724v16.552l11.034-8.276-11.034-8.276z"/><path fill="#fedc41" d="M0 3.415v1.759l9.885 7.826-9.885 7.826v1.759l12.107-9.585-12.107-9.585z"/><path fill="none" d="M12.107 13l-12.107-9.594v19.169l12.107-9.575z"/><path fill="#73af00" d="M17.512 10.241l-12.925-10.241h-4.587v3.406l12.107 9.594-12.107 9.575v3.425h4.562l12.949-10.241h22.489v-5.518h-22.488z"/></symbol></defs><title>アセット 69</title><use width="40" height="26" transform="scale(.6)" xlink:href="#a"/></svg>