<svg xmlns="http://www.w3.org/2000/svg" xmlns:xlink="http://www.w3.org/1999/xlink" width="24" height="15.6" viewBox="0 0 24 15.6"><defs><symbol id="a" viewBox="0 0 40 26"><path fill="#334789" d="M0 0h40v26h-40z"/><path fill="#f5f5f5" d="M36.08 0l-12.632 8.267v-8.267h-6.896v8.267l-12.632-8.267h-3.92v2.378l10.962 7.174h-10.962v6.896h10.962l-10.962 7.191v2.361h3.946l12.606-8.267v8.267h6.896v-8.267l12.622 8.267h3.93v-2.372l-10.962-7.18h10.962v-6.896h-10.962l10.962-7.174v-2.378h-3.92z"/><path fill="#d93f3e" d="M40 15.069v-4.138h-17.931v-10.931h-4.138v10.931h-17.931v4.138h17.931v10.931h4.138v-10.931h17.931zM13.98 16.448l-13.98 9.105v.447h1.845l14.669-9.552h-2.534zM40 24.839l-12.939-8.391h-2.533l14.727 9.552h.745v-1.161zM15.172 9.552l-14.718-9.552h-.454v1.35l12.639 8.202h2.533zM25.982 9.552l14.018-9.055v-.497h-1.768l-14.784 9.552h2.534z"/></symbol></defs><title>アセット 51</title><use width="40" height="26" transform="scale(.6)" xlink:href="#a"/></svg>