<svg xmlns="http://www.w3.org/2000/svg" xmlns:xlink="http://www.w3.org/1999/xlink" width="24" height="15.6" viewBox="0 0 24 15.6"><defs><symbol id="a" viewBox="0 0 40 26"><path fill="#cc0001" d="M0 0h40v26h-40z"/><path fill="#fff" d="M0 24.143h40v1.857h-40zM0 20.429h40v1.857h-40zM0 16.714h40v1.857h-40zM0 13h40v1.857h-40zM0 9.286h40v1.857h-40zM0 5.571h40v1.857h-40zM0 1.857h40v1.857h-40z"/><path fill="#010066" d="M0 0h24v14.857h-24z"/><path d="M9.925 1.857a5.652 5.652 0 0 0-5.725 5.571 5.652 5.652 0 0 0 5.725 5.571 5.809 5.809 0 0 0 3.099-.887 5.19 5.19 0 0 1-1.66.271 5.011 5.011 0 0 1-5.076-4.94 5.011 5.011 0 0 1 5.076-4.94 5.184 5.184 0 0 1 1.761.306 5.808 5.808 0 0 0-3.2-.952zM19.419 10.329l-2.412-1.229.713 2.514-1.613-2.103-.503 2.56-.495-2.561-1.62 2.099.721-2.512-2.415 1.221 1.794-1.965-2.733.102 2.512-1.029-2.509-1.037 2.732.11-1.788-1.971 2.411 1.229-.713-2.514 1.613 2.103.503-2.56.495 2.561 1.62-2.099-.721 2.512 2.415-1.221-1.794 1.965 2.733-.102-2.512 1.029 2.509 1.037-2.732-.11z" fill="#fc0"/></symbol></defs><title>アセット 59</title><use width="40" height="26" transform="scale(.6)" xlink:href="#a"/></svg>