<svg xmlns="http://www.w3.org/2000/svg" xmlns:xlink="http://www.w3.org/1999/xlink" width="24" height="15.6" viewBox="0 0 24 15.6"><defs><symbol id="a" viewBox="0 0 40 26"><path fill="#d93f3e" d="M0 0h40v26h-40z"/><path d="M17.537 14.009a3.479 3.479 0 0 1-2.701-1.212.157.157 0 0 1 .016-.224.157.157 0 0 1 .219.016 3.425 3.425 0 0 0 3.886.835 1.961 1.961 0 0 1-1.093-.2c-1.204-.792-.659-1.634-1.459-2.652-.795-1.012-1.51-.987-2.636-.816a1.318 1.318 0 0 1-1.581-1.103.085.085 0 0 0-.162-.008c-1.39 3.754 2.789 8.4 7.078 5.059a4.72 4.72 0 0 1-1.567.305zm-3.13-1.274a.074.074 0 0 1-.141-.004l-.16-.527-.551-.019a.074.074 0 0 1-.04-.135l.452-.315-.152-.53a.074.074 0 0 1 .116-.08l.439.333.457-.308a.074.074 0 0 1 .112.086l-.18.521.434.339a.074.074 0 0 1-.047.133l-.551-.011zM20.615 11.515a3.479 3.479 0 0 1 2.888-.65.157.157 0 0 1 .121.189.157.157 0 0 1-.185.118 3.425 3.425 0 0 0-3.61 1.662 1.96 1.96 0 0 1 .995-.495c1.438-.089 1.507.912 2.758 1.247 1.243.333 1.8-.116 2.599-.928a1.318 1.318 0 0 1 1.926-.066.085.085 0 0 0 .135-.091c-1.14-3.837-7.269-5.049-8.698.196a4.721 4.721 0 0 1 1.071-1.184zm3.269-.858a.074.074 0 0 1 .115-.081l.444.326.452-.315a.074.074 0 0 1 .113.084l-.173.523.439.333a.074.074 0 0 1-.045.133l-.551-.003-.181.521a.074.074 0 0 1-.141-.002l-.168-.525-.551-.011a.074.074 0 0 1-.042-.134l.447-.322zM18.312 11.877a3.479 3.479 0 0 1 .093-2.959.157.157 0 0 1 .214-.07.158.158 0 0 1 .068.208 3.425 3.425 0 0 0 .706 3.911 1.961 1.961 0 0 1-.231-1.087c.274-1.415 1.26-1.231 1.897-2.358.633-1.12.338-1.772-.248-2.748a1.318 1.318 0 0 1 .418-1.881.085.085 0 0 0-.054-.153c-4.001.144-6.707 5.775-1.986 8.471a4.722 4.722 0 0 1-.878-1.333zm-.013-3.38a.074.074 0 0 1-.05-.132l.427-.349-.192-.517a.074.074 0 0 1 .11-.088l.463.298.432-.342a.074.074 0 0 1 .118.077l-.14.533.459.305a.074.074 0 0 1-.037.136l-.55.031-.149.531a.074.074 0 0 1-.141.007l-.2-.513zM21.429 13.694a3.479 3.479 0 0 1 1.524 2.538.157.157 0 0 1-.141.175.157.157 0 0 1-.17-.138 3.425 3.425 0 0 0-2.712-2.905 1.961 1.961 0 0 1 .783.789c.536 1.338-.393 1.717-.318 3.01.074 1.284.675 1.673 1.697 2.176a1.318 1.318 0 0 1 .667 1.808.085.085 0 0 0 .129.099c3.285-2.287 2.51-8.487-2.918-8.196a4.716 4.716 0 0 1 1.461.645zm1.841 2.834a.074.074 0 0 1 .113.084l-.17.524.441.331a.074.074 0 0 1-.044.134h-.551l-.178.521a.074.074 0 0 1-.141-.001l-.171-.524-.551-.008a.074.074 0 0 1-.043-.134l.446-.324-.163-.527a.074.074 0 0 1 .115-.082l.446.324zM19.632 15.252a3.479 3.479 0 0 1-1.954 2.224.157.157 0 0 1-.209-.082.158.158 0 0 1 .08-.204 3.425 3.425 0 0 0 1.943-3.467 1.961 1.961 0 0 1-.514.986c-1.111.918-1.755.148-2.964.613-1.201.462-1.388 1.152-1.556 2.279a1.318 1.318 0 0 1-1.519 1.186.085.085 0 0 0-.055.153c3.178 2.434 8.848-.191 6.92-5.274a4.713 4.713 0 0 1-.17 1.587zm-2.14 2.616a.074.074 0 0 1-.045.133l-.551-.002-.181.521a.074.074 0 0 1-.141-.002l-.168-.525-.551-.011a.074.074 0 0 1-.042-.134l.447-.322-.16-.527a.074.074 0 0 1 .115-.081l.444.326.452-.315a.074.074 0 0 1 .113.084l-.172.523z" fill="#f5f5f5"/></symbol></defs><title>アセット 52</title><use width="40" height="26" transform="scale(.6)" xlink:href="#a"/></svg>