<svg xmlns="http://www.w3.org/2000/svg" xmlns:xlink="http://www.w3.org/1999/xlink" width="24" height="15.6" viewBox="0 0 24 15.6"><defs><symbol id="a" viewBox="0 0 40 26"><path fill="#383f8e" d="M0 0h40v26h-40z"/><path d="M10.209 16.864l.521 1.719 1.668-.664a.155.155 0 0 1 .185.232l-1.019 1.478 1.56.89a.155.155 0 0 1-.066.289l-1.791.125.277 1.774a.155.155 0 0 1-.267.129l-1.215-1.323-1.215 1.323a.155.155 0 0 1-.267-.129l.277-1.774-1.791-.125a.155.155 0 0 1-.066-.289l1.56-.89-1.019-1.478a.155.155 0 0 1 .185-.232l1.668.664.521-1.719a.155.155 0 0 1 .297 0zM30.725 4.645l.254.839.815-.325a.076.076 0 0 1 .09.113l-.498.722.762.435a.076.076 0 0 1-.032.141l-.875.061.135.867a.076.076 0 0 1-.13.063l-.593-.646-.593.646a.076.076 0 0 1-.13-.063l.135-.867-.875-.061a.076.076 0 0 1-.032-.141l.762-.435-.498-.722a.076.076 0 0 1 .09-.113l.815.325.254-.839a.076.076 0 0 1 .145 0zM25.055 11.088l.254.839.815-.325a.076.076 0 0 1 .09.113l-.498.722.762.435a.076.076 0 0 1-.032.141l-.875.061.135.867a.076.076 0 0 1-.13.063l-.593-.646-.593.646a.076.076 0 0 1-.13-.063l.135-.867-.875-.061a.076.076 0 0 1-.032-.141l.762-.435-.498-.722a.076.076 0 0 1 .09-.113l.815.325.254-.839a.076.076 0 0 1 .145 0zM36.089 8.33l.254.839.815-.325a.076.076 0 0 1 .09.113l-.498.722.762.435a.076.076 0 0 1-.032.141l-.875.061.135.867a.076.076 0 0 1-.13.063l-.593-.646-.593.646a.076.076 0 0 1-.13-.063l.135-.867-.875-.061a.076.076 0 0 1-.032-.141l.762-.435-.498-.722a.076.076 0 0 1 .09-.113l.815.325.254-.839a.076.076 0 0 1 .145 0zM30.725 19.364l.254.839.815-.325a.076.076 0 0 1 .09.113l-.498.722.762.435a.076.076 0 0 1-.032.141l-.875.061.135.867a.076.076 0 0 1-.13.063l-.593-.646-.593.646a.076.076 0 0 1-.13-.063l.135-.867-.875-.061a.076.076 0 0 1-.032-.141l.762-.435-.498-.722a.076.076 0 0 1 .09-.113l.815.325.254-.839a.076.076 0 0 1 .145 0zM32.692 12.597l-.204.612-.645.005a.087.087 0 0 0-.051.157l.519.383-.195.615a.087.087 0 0 0 .133.097l.525-.375.525.375a.087.087 0 0 0 .133-.097l-.195-.615.519-.383a.087.087 0 0 0-.051-.157l-.645-.005-.204-.612a.087.087 0 0 0-.165 0zM20 11.867l-5.481-3.591h5.481v-3.448h-5.481l5.481-3.58v-1.248h-1.87l-6.406 4.185v-4.185h-3.448v4.185l-6.421-4.185h-1.855v1.257l5.481 3.571h-5.481v3.448h5.481l-5.481 3.61v1.114h2.076l6.2-4.082v4.082h3.448v-4.082l6.23 4.082h2.046v-1.133z" fill="#f5f5f5"/><path fill="#d93f3e" d="M20 7.586v-2.069h-8.966v-5.517h-2.068v5.517h-8.966v2.069h8.966v5.414h2.068v-5.414h8.966zM7.586 4.828l-7.418-4.828h-.168v.725l6.319 4.103h1.267zM12.991 4.828l7.009-4.511v-.317h-.777l-7.499 4.828h1.267zM6.99 8.276l-6.99 4.554v.17h1.004l7.253-4.724h-1.267zM20 12.446l-6.469-4.17h-1.267l7.324 4.724h.412v-.554z"/></symbol></defs><title>アセット 42</title><use width="40" height="26" transform="scale(.6)" xlink:href="#a"/></svg>