<svg xmlns="http://www.w3.org/2000/svg" width="21.332" height="21.332">
    <path fill="none" d="M0 0h16v16H0V0z"/>
    <path fill="#CEF" fill-rule="evenodd" d="M11.611 4.282l2.04-2.04.721.722-2.04 2.039-.721-.721zm1.577 4.193l-2.885 2.885-2.163 2.164a1.024 1.024 0 0 1-1.443 0L3.091 9.918a1.021 1.021 0 0 1 0-1.443l2.164-2.164L8.14 3.427a1.018 1.018 0 0 1 1.442 0l3.606 3.605a1.021 1.021 0 0 1 0 1.443zm-7.933-.721L3.812 9.196l3.606 3.606 1.443-1.442-3.606-3.606zm-3.843-4.79l.721-.722 2.04 2.04-.721.721-2.04-2.039zm2.761 10.199l-2.04 2.039-.721-.721 2.04-2.039.721.721zm10.199 1.318l-.721.721-2.04-2.039.721-.721 2.04 2.039z"/>
</svg>
