<svg xmlns="http://www.w3.org/2000/svg" width="32.001" height="32.001">
    <path fill="none" d="M0 0h24v24H0V0z" opacity=".102"/>
    <path fill="#E5E617" fill-rule="evenodd" d="M19.5 17.707L12.529 5.492a.842.842 0 0 0-1.463 0L4.095 17.707a.844.844 0 0 0 .732 1.262h13.942a.843.843 0 0 0 .731-1.262zm-6.649-.635a.843.843 0 0 1-.842.843h-.422a.843.843 0 0 1-.842-.843v-.422c0-.466.377-.844.842-.844h.422c.465 0 .842.378.842.844v.422zm0-3.163a.842.842 0 0 1-.842.843h-.422a.842.842 0 0 1-.842-.843V9.271c0-.466.377-.844.842-.844h.422c.465 0 .842.378.842.844v4.638z"/>
</svg>
