<svg xmlns="http://www.w3.org/2000/svg" width="32.001" height="32.001">
    <path fill="none" d="M0 0h24v24H0V0z" opacity=".102"/>
    <path fill="#DDE1F0" fill-rule="evenodd" d="M4 3h16a1 1 0 0 1 1 1v16a1 1 0 0 1-1 1H4a1 1 0 0 1-1-1V4a1 1 0 0 1 1-1z" opacity=".902"/>
    <path fill="#007C99" fill-rule="evenodd" d="M12.18 7.925c.882 0 1.668.191 2.356.572a4.027 4.027 0 0 1 1.604 1.607c.381.689.571 1.464.571 2.325 0 .879-.191 1.657-.574 2.336a3.937 3.937 0 0 1-1.631 1.577c-.705.373-1.513.559-2.424.559H8.625V7.925h3.555zm-.171 7.62c.907 0 1.635-.288 2.184-.864.549-.576.824-1.331.824-2.265 0-.968-.277-1.732-.83-2.293-.553-.561-1.297-.842-2.232-.842h-1.689v6.264h1.743z"/>
</svg>
