<svg xmlns="http://www.w3.org/2000/svg" width="32.001" height="32.001">
    <path fill="none" d="M0 0h24v24H0V0z" opacity=".102"/>
    <path fill="#DDE1F0" fill-rule="evenodd" d="M4 3h16a1 1 0 0 1 1 1v16a1 1 0 0 1-1 1H4a1 1 0 0 1-1-1V4a1 1 0 0 1 1-1z" opacity=".902"/>
    <path fill="#666" fill-rule="evenodd" d="M17.268 11.865c-.507.463-1.176.695-2.005.695h-1.594v3.63h-1.656V7.534h3.312c.801 0 1.451.235 1.952.703.501.469.751 1.074.751 1.813 0 .748-.253 1.353-.76 1.815zm-2.471-3.023h-1.128v2.41h1.244c.442 0 .786-.102 1.034-.307.247-.204.371-.507.371-.907 0-.798-.507-1.196-1.521-1.196zm-7.395 8.74H7.24c-.052 0-.106-.004-.163-.011L6.961 16.3c.981 0 1.471-.51 1.471-1.531V7.565h1.655v7.329c0 .814-.244 1.466-.735 1.955-.49.489-1.141.733-1.95.733z"/>
</svg>
