<svg xmlns="http://www.w3.org/2000/svg" width="32.001" height="32.001">
    <path fill="none" d="M0 0h24v24H0V0z" opacity=".102"/>
    <path fill="#DDE1F0" fill-rule="evenodd" d="M4 3h16a1 1 0 0 1 1 1v16a1 1 0 0 1-1 1H4a1 1 0 0 1-1-1V4a1 1 0 0 1 1-1z" opacity=".902"/>
    <path fill="#3D7D99" fill-rule="evenodd" d="M18.333 15.664v-2.94h-2.421v2.94h-.901v-6.96h.901v2.929h2.421V8.704h.902v6.96h-.902zm-5.574-5.909h-2.551V8.704h4.105l-2.719 5.909h2.732v1.051h-4.281l2.714-5.909zM8.422 15.23a2.173 2.173 0 0 1-1.333.434h-1.9v-6.96h1.954c.485 0 .917.148 1.295.444.378.295.672.71.882 1.245.209.534.314 1.136.314 1.803 0 .681-.106 1.285-.316 1.811-.211.527-.509.934-.896 1.223zm-.176-4.822c-.304-.435-.713-.653-1.227-.653h-.928v4.858h.958c.499 0 .899-.224 1.201-.671.301-.446.452-1.032.452-1.756 0-.75-.151-1.343-.456-1.778z"/>
</svg>
