<svg xmlns="http://www.w3.org/2000/svg" viewBox="0 0 23.75 23.75"><defs><style>.a{fill:#fff;stroke:#fff;stroke-miterlimit:10;stroke-width:2px;}</style></defs><title>order_icon_fff</title><path class="a" d="M4.92,10.72l1.64.44s.8-3.68,3.9-4.43c4.69-1.18,6.73,2,6.73,2l-1.06.82,3.46.92-.17-3.32-1.13.75A7.43,7.43,0,0,0,11,5.08C6.45,5.61,4.92,10.72,4.92,10.72Z"/><path class="a" d="M19.29,13.77l-1.59-.4s-.8,3.68-3.9,4.43c-4.69,1.18-6.73-2-6.73-2l1-.83-3.5-1,.22,3.4,1.08-.76a8.66,8.66,0,0,0,7.78,2.86C18.29,18.92,19.29,13.77,19.29,13.77Z"/></svg>