<svg xmlns="http://www.w3.org/2000/svg" width="128" height="128" viewBox="0 0 128 128"><title>アセット 10</title><path d="M7.40272,62.2153c0,32.17114,25.39337,58.25286,56.71542,58.25286s56.71543-26.08173,56.71543-58.25286c0-32.17638-25.39336-58.2581-56.71543-58.2581S7.40272,30.03892,7.40272,62.2153" fill="none"/><path d="M39.79527,13.42921a51.89334,51.89334,0,0,1,48.48992.23261,29.37511,29.37511,0,0,1,5.37448-5.18354,59.07444,59.07444,0,0,0-59.31934-.21473A29.10087,29.10087,0,0,1,39.79527,13.42921Z" fill="#fff"/><path d="M64.32452,115.90221a51.09681,51.09681,0,0,0,36.8312-15.68177,53.9212,53.9212,0,0,0,7.00275-8.91733c-.00338-2.58259-.09738-5.13028-.26278-7.62664H20.07762c-.147,2.15518-.21481,4.3542-.23608,6.5752a53.88987,53.88987,0,0,0,7.65106,9.96817A51.09744,51.09744,0,0,0,64.32452,115.90221Z" fill="#fff"/><path d="M121.62027,44.73961a20.27571,20.27571,0,0,1-4.69149,3.39515c-.19863.10374-.42178.18454-.63381.2756a57.207,57.207,0,0,1,1.89528,14.60751,56.28494,56.28494,0,0,1-15.879,39.38716,53.07315,53.07315,0,0,1-76.50006,0,56.28494,56.28494,0,0,1-15.879-39.38716,57.18745,57.18745,0,0,1,1.95013-14.80569c-.05654-.02621-.119-.047-.17325-.07536A20.32562,20.32562,0,0,1,6.52519,44.2866,63.43746,63.43746,0,0,0,3.7088,63.01726,62.22022,62.22022,0,0,0,21.33376,106.7,59.12681,59.12681,0,0,0,64,124.84484h.00773A59.11864,59.11864,0,0,0,106.66527,106.7,62.217,62.217,0,0,0,124.2912,63.01726,63.47956,63.47956,0,0,0,121.62027,44.73961Z" fill="#fff"/><path d="M123.72592,18.68758c-5.05627-10.266-16.8728-14.57892-26.38324-9.6319C90.28647,12.73971,83.93429,21.82137,83.22,30.46291a37.83153,37.83153,0,0,0-19.21979-4.93127,37.84771,37.84771,0,0,0-19.20959,4.93127c-.72449-8.64154-7.07153-17.72321-14.13293-21.40723-9.50525-4.947-21.31671-.63409-26.38824,9.6319S2.79489,41.29495,12.30527,46.23666A27.04014,27.04014,0,0,0,28.30563,48.511c-4.64807,8.98737-7.39813,20.05524-8.21448,32.19733h87.81812c-.81128-12.14209-3.55621-23.21-8.20935-32.19733a27.02914,27.02914,0,0,0,15.99518-2.27435C125.20041,41.29495,128.80765,28.95364,123.72592,18.68758ZM84.51333,49.38509c1.76819,0,3.20648,2.49475,3.20648,5.57751s-1.43829,5.57751-3.20648,5.57751c-1.78363,0-3.23218-2.49481-3.23218-5.57751S82.7297,49.38509,84.51333,49.38509ZM64.13211,61.99923a3.06407,3.06407,0,1,1-2.9848,3.06567A3.02661,3.02661,0,0,1,64.13211,61.99923ZM43.497,49.38509c1.77844,0,3.21155,2.49475,3.21155,5.57751s-1.43311,5.57751-3.21155,5.57751c-1.77338,0-3.21674-2.49481-3.21674-5.57751S41.7236,49.38509,43.497,49.38509Zm1.994,22.87848-12.3421,1.635a.92276.92276,0,0,1-1.02551-.8175.94155.94155,0,0,1,.78571-1.06384l12.3421-1.635a.93229.93229,0,0,1,1.03571.8175A.943.943,0,0,1,45.49093,72.26357Zm1.57245-5.993a.92347.92347,0,0,1-1.13263.68121l-12.33191-3.27a.93821.93821,0,0,1-.65308-1.15814.91357.91357,0,0,1,1.11737-.68127L46.395,65.11245A.957.957,0,0,1,47.06338,66.27059Zm25.96,5.26892c-3.00006,3.07611-6.16846,4.554-9.439,4.38623-5.01025-.25677-8.29608-4.30768-8.43384-4.48059a1.382,1.382,0,0,1,.18878-1.90753,1.27378,1.27378,0,0,1,1.84192.18341c.03571.03143,2.72455,3.312,6.55115,3.49542,2.48474.12048,4.9848-1.09,7.41852-3.58972a1.2936,1.2936,0,0,1,1.87244,0A1.37656,1.37656,0,0,1,73.0234,71.53951ZM80.932,66.27059a.96226.96226,0,0,1,.66327-1.15814l12.337-3.27008a.931.931,0,0,1,1.12756.68127.95542.95542,0,0,1-.6684,1.15814l-12.33185,3.27A.92286.92286,0,0,1,80.932,66.27059Zm13.90991,7.628-12.342-1.635a.95364.95364,0,0,1-.796-1.06384.94286.94286,0,0,1,1.04083-.8175l12.33191,1.635a.94823.94823,0,0,1-.23474,1.88135Z" fill="#fff"/><rect width="128" height="128" fill="none"/></svg>