<svg xmlns="http://www.w3.org/2000/svg" width="128" height="128" viewBox="0 0 128 128"><title>アセット 11</title><rect width="128" height="128" fill="none"/><path d="M99.05143,41.76a30.55058,30.55058,0,0,1-4.391-.24866l-.54114-.07049-.2394-.49066c-.06306-.12938-6.42491-12.98831-15.75751-16.38257l-.71885-.26125.05408-.76291c.58647-8.28072,6.6112-17.45794,14.01441-21.34666a19.22769,19.22769,0,0,1,15.26586-1.12868,21.18686,21.18686,0,0,1,11.96223,10.30722,21.18889,21.18889,0,0,1,1.7158,15.69543,19.23442,19.23442,0,0,1-9.58189,11.94155A26.67254,26.67254,0,0,1,99.05143,41.76Z" fill="#a2c800"/><path d="M28.04982,42.82211a26.67469,26.67469,0,0,1-11.85933-2.394A19.23325,19.23325,0,0,1,6.25629,28.77881,21.19153,21.19153,0,0,1,7.50068,13.03887,21.18921,21.18921,0,0,1,19.14986,2.37861a19.22914,19.22914,0,0,1,15.2928.67192c7.51665,3.66462,13.813,12.6575,14.64478,20.91766l.07665.76073-.71028.28263C39.22978,28.68344,33.2524,41.727,33.193,41.85842l-.2244.49716-.53878.08687A30.55611,30.55611,0,0,1,28.04982,42.82211Z" fill="#a2c800"/><path d="M116.90563,12.31908a19.16691,19.16691,0,0,0-10.81769-9.33042A17.2222,17.2222,0,0,0,92.41574,3.99117C85.80155,7.4657,80.38,15.50875,79.54775,22.94748c4.00913,1.66326,7.90182,4.97125,11.58107,9.84425a50.80651,50.80651,0,0,1,4.32012,6.77262,25.98033,25.98033,0,0,0,14.44129-2.34649,17.22492,17.22492,0,0,0,8.575-10.69946A19.17025,19.17025,0,0,0,116.90563,12.31908Z" fill="#ffe8d6"/><path d="M33.553,4.87242a16.95861,16.95861,0,0,0-7.72921-1.73A17.85661,17.85661,0,0,0,19.85692,4.2788,19.16947,19.16947,0,0,0,9.32258,13.9285a19.17486,19.17486,0,0,0-1.133,14.23979,17.225,17.225,0,0,0,8.8906,10.43787,25.97367,25.97367,0,0,0,14.5037,1.91362,50.82161,50.82161,0,0,1,4.1163-6.89878c3.53249-4.98088,7.32407-8.40379,11.28042-10.18626C45.92814,16.024,40.26867,8.14652,33.553,4.87242Z" fill="#ffe8d6"/><path d="M122.02319,60.69446a5.52963,5.52963,0,0,0-7.51166-2.17308l-12.16221,6.7021c-.05528-2.30726-.11091-4.32556-.15656-5.37461a24.823,24.823,0,0,0,2.13108-10.7263c-.283-18.91-18.76462-34.021-41.199-33.68541C40.69235,15.77284,22.67221,31.43,22.955,50.34a24.17142,24.17142,0,0,0,3.30959,12.19172c-.00464,1.149.00606,3.111.02354,5.276l-13.21839-5.3393A5.52983,5.52983,0,0,0,8.928,72.72328L26.41975,79.788c.23823,15.13861.91156,29.42236,17.86073,34.97769l2.938,9.3618A5.52992,5.52992,0,0,0,57.77026,120.814L56.56839,116.985c2.43012.17511,5.03322.25838,7.8749.21585.11912-.00178.234-.00624.34826-.01079.19419-.00687.39391-.0099.589-.00883.11466.00116.22967.00214.34933.00036A81.95319,81.95319,0,0,0,77.26438,116.26l-.71078,5.40706a5.52988,5.52988,0,0,0,10.96569,1.43948l1.34559-10.23681c14.0563-6.78261,13.9552-20.65658,13.7389-35.15895l17.24713-9.50624A5.52672,5.52672,0,0,0,122.02319,60.69446Z" fill="#a2c800"/><path d="M46.81838,93.14409c-3.78187.05662-5.13771-.62929-5.19709-4.60133-.026-1.74164.08176-2.91256.7262-3.74246.67074-.86743,1.88982-1.27284,3.95038-1.30369,2.76019-.04128,4.87353.19446,4.9527,3.55736a.35844.35844,0,0,1-.10351.26454.36629.36629,0,0,1-.25812.10984l-2.02284.03022a.36939.36939,0,0,1-.3775-.35949c-.02488-1.05663-.30314-1.228-1.96667-1.20311-1.95223.02916-2.15212.03219-2.117,2.38278.03424,2.289.09406,2.49735,2.06412,2.46793,2.08855-.03129,2.08695-.13463,2.09319-1.451a.36447.36447,0,0,1,.35869-.368l2.06457-.03094a.38411.38411,0,0,1,.26534.10449.39392.39392,0,0,1,.11439.262C51.373,92.11644,50.22622,93.09318,46.81838,93.14409Z" fill="#fff"/><path d="M60.87129,92.84567l-7.45638.11154a.36473.36473,0,0,1-.3726-.36065l-.13071-8.73493a.36809.36809,0,0,1,.36154-.37723l2.05271-.03067a.3626.3626,0,0,1,.36974.36627s.09023,6.03412.10021,6.70121l5.03955-.07543a.37121.37121,0,0,1,.37277.36315l.025,1.66514A.36812.36812,0,0,1,60.87129,92.84567Z" fill="#fff"/><path d="M65.33184,92.77889l-2.05949.03085a.36277.36277,0,0,1-.3717-.36065l-.13071-8.73493a.36616.36616,0,0,1,.36065-.37723l2.05958-.03076a.37148.37148,0,0,1,.37964.36609l.13071,8.73493A.36825.36825,0,0,1,65.33184,92.77889Z" fill="#fff"/><path d="M72.20254,92.76436c-3.78294.05662-5.13165-.62937-5.19112-4.60142-.026-1.74172.0798-2.91265.72326-3.74246.67066-.86743,1.89178-1.27293,3.94842-1.30369,2.7601-.04128,4.87852.19437,4.95761,3.55736a.37384.37384,0,0,1-.10253.26454.384.384,0,0,1-.262.10975l-2.02382.03031a.37638.37638,0,0,1-.37955-.35949c-.02184-1.05663-.299-1.22808-1.96658-1.20311-1.9492.02916-2.15221.03219-2.11709,2.38278.03424,2.289.09406,2.49744,2.06707,2.46793,2.08953-.03129,2.092-.13472,2.09114-1.45089a.365.365,0,0,1,.36368-.36814l2.0627-.03085a.37533.37533,0,0,1,.37777.36653C76.76321,91.73653,75.61243,92.71336,72.20254,92.76436Z" fill="#fff"/><path d="M87.90873,92.21264a.36675.36675,0,0,1-.34077.2336l-2.66853.03994A.375.375,0,0,1,84.632,92.384s-2.87137-2.81369-3.81066-3.73113c.017,1.14079.05278,3.52732.05278,3.52732a.36979.36979,0,0,1-.36671.3717l-2.04763.03058a.36852.36852,0,0,1-.38062-.36047l-.13071-8.73493a.37172.37172,0,0,1,.36956-.37732l2.04772-.03067a.373.373,0,0,1,.37768.36618s.03254,2.17745.049,3.27535c.89489-.91406,3.54693-3.594,3.54693-3.594a.35629.35629,0,0,1,.259-.11082l2.61789-.03923a.35684.35684,0,0,1,.34558.22522.29785.29785,0,0,1,.03308.141.40192.40192,0,0,1-.10753.26775s-3.63805,3.555-4.12254,4.03356c.49858.46416,4.45118,4.16641,4.45118,4.16641a.36591.36591,0,0,1,.11947.26409A.32247.32247,0,0,1,87.90873,92.21264Z" fill="#fff"/><path d="M64.15931,74.20641c-18.32168.27408-33.37639-4.25173-33.57887-17.78521S45.06711,31.69691,63.38781,31.42283c18.32177-.27416,33.33707,10.47228,33.53955,24.00576S82.48215,73.93224,64.15931,74.20641Z" fill="#ffe8d6"/><path d="M52.1946,45.37931,43.65351,42.461a.9621.9621,0,1,0-.62251,1.82072l6.17035,2.1079L43.339,48.89432a.96188.96188,0,1,0,.75554,1.76919l8.1668-3.48925a.9621.9621,0,0,0-.06669-1.795Z"/><path d="M82.93919,50.1101a.962.962,0,0,0,.31117-1.87234L77.08,46.12994l5.8624-2.50484a.96184.96184,0,0,0-.75554-1.7691l-8.1668,3.48916a.9621.9621,0,0,0,.06669,1.795l8.54109,2.91836A.96918.96918,0,0,0,82.93919,50.1101Z"/><path d="M47.8579,55.12575l-10.52863-2.55a.78588.78588,0,0,0-.3693,1.52774l10.52952,2.54888a.78526.78526,0,1,0,.36841-1.52667Z"/><path d="M46.95507,59.50177,36.47726,61.01347a.78535.78535,0,0,0,.22718,1.55413l10.47193-1.51018a.78566.78566,0,0,0-.22129-1.55565Z"/><path d="M69.83974,59.48581c-2.03372,2.10095-4.147,3.13323-6.26183,3.06592a8.67039,8.67039,0,0,1-5.61025-2.80967,1.12258,1.12258,0,0,0-1.711,1.45374,10.84459,10.84459,0,0,0,7.23045,3.6c2.78105.09923,5.45815-1.165,7.96923-3.74879a1.1237,1.1237,0,0,0-1.61663-1.56118Z"/><circle cx="63.82132" cy="55.79917" r="2.53651" transform="translate(-0.82814 0.96163) rotate(-0.85773)"/><path d="M90.47849,53.3028a.78585.78585,0,1,0-.41477-1.516L79.60891,54.65071a.78662.78662,0,0,0,.42475,1.51481Z"/><path d="M91.16787,60.19525,80.65332,58.99758a.786.786,0,0,0-.17957,1.56171l10.51133,1.19625a.78549.78549,0,0,0,.18278-1.56029Z"/></svg>