<svg xmlns="http://www.w3.org/2000/svg" width="128" height="128" viewBox="0 0 128 128"><title>アセット 13</title><path d="M7.40272,62.2153c0,32.17114,25.39337,58.25286,56.71542,58.25286s56.71543-26.08173,56.71543-58.25286c0-32.17638-25.39336-58.2581-56.71543-58.2581S7.40272,30.03892,7.40272,62.2153" fill="none"/><path d="M39.79527,13.42921a51.89334,51.89334,0,0,1,48.48992.23261,29.37511,29.37511,0,0,1,5.37448-5.18354,59.07444,59.07444,0,0,0-59.31934-.21473A29.10087,29.10087,0,0,1,39.79527,13.42921Z" fill="#fff"/><path d="M64.32452,115.90221a51.09681,51.09681,0,0,0,36.8312-15.68177,53.9212,53.9212,0,0,0,7.00275-8.91733c-.00338-2.58259-.09738-5.13028-.26278-7.62664H20.07762c-.147,2.15518-.21481,4.3542-.23608,6.5752a53.88987,53.88987,0,0,0,7.65106,9.96817A51.09744,51.09744,0,0,0,64.32452,115.90221Z" fill="#fff"/><path d="M121.62027,44.73961a20.27571,20.27571,0,0,1-4.69149,3.39515c-.19863.10374-.42178.18454-.63381.2756a57.207,57.207,0,0,1,1.89528,14.60751,56.28494,56.28494,0,0,1-15.879,39.38716,53.07315,53.07315,0,0,1-76.50006,0,56.28494,56.28494,0,0,1-15.879-39.38716,57.18745,57.18745,0,0,1,1.95013-14.80569c-.05654-.02621-.119-.047-.17325-.07536A20.32562,20.32562,0,0,1,6.52519,44.2866,63.43746,63.43746,0,0,0,3.7088,63.01726,62.22022,62.22022,0,0,0,21.33376,106.7,59.12681,59.12681,0,0,0,64,124.84484h.00773A59.11864,59.11864,0,0,0,106.66527,106.7,62.217,62.217,0,0,0,124.2912,63.01726,63.47956,63.47956,0,0,0,121.62027,44.73961Z" fill="#fff"/><path d="M123.72592,18.68758c-5.05627-10.266-16.8728-14.57892-26.38324-9.6319C90.28647,12.73971,83.93429,21.82137,83.22,30.46291a37.83153,37.83153,0,0,0-19.21979-4.93127,37.84771,37.84771,0,0,0-19.20959,4.93127c-.72449-8.64154-7.07153-17.72321-14.13293-21.40723-9.50525-4.947-21.31671-.63409-26.38824,9.6319S2.79489,41.29495,12.30527,46.23666A27.04014,27.04014,0,0,0,28.30563,48.511c-4.64807,8.98737-7.39813,20.05524-8.21448,32.19733h87.81812c-.81128-12.14209-3.55621-23.21-8.20935-32.19733a27.02914,27.02914,0,0,0,15.99518-2.27435C125.20041,41.29495,128.80765,28.95364,123.72592,18.68758ZM84.51333,49.38509c1.76819,0,3.20648,2.49475,3.20648,5.57751s-1.43829,5.57751-3.20648,5.57751c-1.78363,0-3.23218-2.49481-3.23218-5.57751S82.7297,49.38509,84.51333,49.38509ZM64.13211,61.99923a3.06407,3.06407,0,1,1-2.9848,3.06567A3.02661,3.02661,0,0,1,64.13211,61.99923ZM43.497,49.38509c1.77844,0,3.21155,2.49475,3.21155,5.57751s-1.43311,5.57751-3.21155,5.57751c-1.77338,0-3.21674-2.49481-3.21674-5.57751S41.7236,49.38509,43.497,49.38509Zm1.994,22.87848-12.3421,1.635a.92276.92276,0,0,1-1.02551-.8175.94155.94155,0,0,1,.78571-1.06384l12.3421-1.635a.93229.93229,0,0,1,1.03571.8175A.943.943,0,0,1,45.49093,72.26357Zm1.57245-5.993a.92347.92347,0,0,1-1.13263.68121l-12.33191-3.27a.93821.93821,0,0,1-.65308-1.15814.91357.91357,0,0,1,1.11737-.68127L46.395,65.11245A.957.957,0,0,1,47.06338,66.27059Zm25.96,5.26892c-3.00006,3.07611-6.16846,4.554-9.439,4.38623-5.01025-.25677-8.29608-4.30768-8.43384-4.48059a1.382,1.382,0,0,1,.18878-1.90753,1.27378,1.27378,0,0,1,1.84192.18341c.03571.03143,2.72455,3.312,6.55115,3.49542,2.48474.12048,4.9848-1.09,7.41852-3.58972a1.2936,1.2936,0,0,1,1.87244,0A1.37656,1.37656,0,0,1,73.0234,71.53951ZM80.932,66.27059a.96226.96226,0,0,1,.66327-1.15814l12.337-3.27008a.931.931,0,0,1,1.12756.68127.95542.95542,0,0,1-.6684,1.15814l-12.33185,3.27A.92286.92286,0,0,1,80.932,66.27059Zm13.90991,7.628-12.342-1.635a.95364.95364,0,0,1-.796-1.06384.94286.94286,0,0,1,1.04083-.8175l12.33191,1.635a.94823.94823,0,0,1-.23474,1.88135Z" fill="#fff"/><rect width="128" height="128" fill="none"/><path d="M44.26108,66.68659h-.03455A15.70016,15.70016,0,0,1,28.55942,50.9867l.00006-.02429.00006-.01025A15.70063,15.70063,0,0,1,44.25938,35.28443l.02454.00006.01007.00006A15.7012,15.7012,0,0,1,59.961,50.98444V51.019A15.70061,15.70061,0,0,1,44.26108,66.68659Z" fill="#e5f3f7"/><path d="M84.01334,66.68659H83.9788A15.70016,15.70016,0,0,1,68.31168,50.9867l.00006-.02429.00006-.01025A15.70063,15.70063,0,0,1,84.01163,35.28443l.02454.00006.01007.00006a15.7012,15.7012,0,0,1,15.667,15.69989V51.019A15.70061,15.70061,0,0,1,84.01334,66.68659Z" fill="#e5f3f7"/><polygon points="26.336 50.854 26.336 50.854 26.336 50.844 26.336 50.854"/><polygon points="44.169 33.098 44.17 33.098 44.179 33.098 44.169 33.098"/><path d="M84.14591,33.09772l-.04083-.00012A17.78052,17.78052,0,0,0,66.34891,50.14979l-.58942-.21185a2.36176,2.36176,0,0,0-1.01541-.202,4.96619,4.96619,0,0,0-1.46878.18433l-1.37518.48553A17.78378,17.78378,0,0,0,44.17039,33.09772l-.04083-.00012a17.79475,17.79475,0,0,0-17.79327,17.7561l-.00012.03955a17.79432,17.79432,0,0,0,17.756,17.79333h.03906A17.7959,17.7959,0,0,0,61.82462,52.775l1.70856-.55194a4.55758,4.55758,0,0,1,1.16382-.207c.59906,0,.45441.09863,1.04688.23438l.65.27216a17.79017,17.79017,0,0,0,17.67383,16.164h.03906a17.79477,17.79477,0,0,0,17.79334-17.75653V50.891A17.79537,17.79537,0,0,0,84.14591,33.09772ZM44.13126,66.59315h-.03455A15.70016,15.70016,0,0,1,28.4296,50.89326l.00006-.02429.00006-.01025A15.70063,15.70063,0,0,1,44.12955,35.191l.02454.00006.01007.00006A15.7012,15.7012,0,0,1,59.83115,50.891v.03461A15.70061,15.70061,0,0,1,44.13126,66.59315Zm39.97552,0h-.03461A15.70015,15.70015,0,0,1,68.40513,50.89326V50.869l.00012-.01025A15.70059,15.70059,0,0,1,84.10508,35.191l.02454.00006.01007.00006A15.7012,15.7012,0,0,1,99.80668,50.891v.03461A15.70061,15.70061,0,0,1,84.10679,66.59315Z"/><polygon points="84.144 33.098 84.146 33.098 84.154 33.098 84.144 33.098"/><path d="M55.04495,54.79522a11.77185,11.77185,0,0,1-22.33653,0h-.74473a12.48437,12.48437,0,0,0,23.82605,0Z"/><path d="M32.44242,48.26126a11.76834,11.76834,0,0,1,22.86853,0h.72212a12.47191,12.47191,0,0,0-24.31276,0Z"/><path d="M51.04172,54.79522a8.074,8.074,0,0,1-14.33008,0H36.013a8.697,8.697,0,0,0,15.72736,0Z"/><path d="M36.30111,48.26126a8.07164,8.07164,0,0,1,15.15115,0h.67021a8.70479,8.70479,0,0,0-16.49158,0Z"/><path d="M40.00159,49.19468a4.28939,4.28939,0,0,1,7.75019,0h.77339a5.00473,5.00473,0,0,0-9.297,0Z"/><path d="M47.75178,52.92838a4.28939,4.28939,0,0,1-7.75019,0H39.2282a5.00473,5.00473,0,0,0,9.297,0Z"/><path d="M95.18072,54.79522a11.77185,11.77185,0,0,1-22.33653,0h-.74473a12.48437,12.48437,0,0,0,23.82605,0Z"/><path d="M72.57819,48.26126a11.76834,11.76834,0,0,1,22.86853,0h.72212a12.47191,12.47191,0,0,0-24.31276,0Z"/><path d="M91.1775,54.79522a8.074,8.074,0,0,1-14.33008,0h-.69864a8.697,8.697,0,0,0,15.72736,0Z"/><path d="M76.43688,48.26126a8.07164,8.07164,0,0,1,15.15115,0h.67021a8.70479,8.70479,0,0,0-16.49158,0Z"/><path d="M80.13736,49.19468a4.28939,4.28939,0,0,1,7.75019,0h.77339a5.00473,5.00473,0,0,0-9.297,0Z"/><path d="M87.88755,52.92838a4.28939,4.28939,0,0,1-7.75019,0H79.364a5.00473,5.00473,0,0,0,9.297,0Z"/></svg>