<svg xmlns="http://www.w3.org/2000/svg" width="149.333" height="32.001">
    <path fill="none" d="M0 0h112.001v24H0V0z" opacity=".2"/>
    <path fill="#FFF" fill-rule="evenodd" d="M106.78 17.327c-.374 2.221-2.576 3.95-4.878 3.95h-3.061l1.311-7.901h3.06c2.313 0 3.932 1.729 3.568 3.951zm-4.25-2.211h-.506l-.738 4.422h.484c1.289 0 2.5-.671 2.764-2.211.231-1.415-.616-2.211-2.004-2.211zm-6.033 0l-.221 1.32h2.367l-.286 1.74H95.99l-.518 3.101h-2.158l1.311-7.901h4.767l-.286 1.74h-2.609zm-5.175.042c-1.321 0-2.367.964-2.576 2.19-.198 1.247.55 2.148 1.894 2.148.704 0 1.464-.325 2.003-.838l-.418 2.462c-.749.21-1.288.367-1.96.367-1.156 0-2.191-.419-2.929-1.163-.782-.786-1.024-1.813-.826-2.986.177-1.08.782-2.117 1.696-2.893.947-.796 2.213-1.278 3.38-1.278.694 0 1.3.146 1.905.398l-.418 2.463c-.342-.566-1.013-.87-1.751-.87zm-6.167 3.32l-4.202-.54-.79 2.962h-1.405l1.661-6.228h1.405l-.511 1.917 4.206.526-.364 1.363zm-13.029-.097l.397-1.487h6.261l-.397 1.487h-6.261zm-3.751 1.308l.354-1.328c.584-.07.928-.353 1.096-.775l-1.64.159-.452 3.162h-1.302l.457-3.052-.906.09.33-1.238.749-.07.12-.865h1.288l-.112.755 3.26-.291c-.596 2.235-1.506 3.141-3.242 3.453zm-4.826-3.557c-.059.194-.195.706-.266.921h1.867l-.34 1.273h-1.997c-.611 1.487-1.94 2.442-4.544 2.574l.354-1.329c1.751-.083 2.479-.616 2.805-1.245h-2.872l.339-1.273h3.01c.071-.187.196-.657.255-.879l-2.88.083.336-1.26 6.019-.179-.339 1.273-1.747.041zM50.936 9.749l-5.824 4.242 8.304-10.508 4.288 3.724 3.618-1.472-6.564 7.552-3.822-3.538zm7.017-1.364l-2.895-.416 1.086-1.636-1.63 1.09-.413-2.908-.414 2.908-1.629-1.09 1.086 1.636-2.896.416 2.896.415-1.086 1.637 1.629-1.091.414 2.909.413-2.909 1.63 1.091L55.058 8.8l2.895-.415zM44.282 19.402c.351 0 .863-.176 1.093-1.037l.758-2.843h2.045l-1.436 5.385h-1.973l.183-.685h-.021c-.526.54-1.149.82-1.964.82-.961 0-1.681-.592-1.352-1.826l.985-3.694h2.045l-.752 2.822c-.167.623-.21 1.058.389 1.058zm-4.195 1.505h-2.045l.753-2.823c.166-.622.21-1.058-.389-1.058-.351 0-.863.176-1.092 1.038l-.759 2.843h-2.046l1.437-5.385h1.973l-.183.684h.021c.526-.539 1.148-.819 1.965-.819.96 0 1.68.591 1.351 1.826l-.986 3.694zM38.754 10.68l-1.326.014c-.459 1.495-1.484 2.466-3.1 2.735l.138-.516c1.255-.218 2.076-1.007 2.449-2.214l-2.187.018.132-.497 2.215-.018c.094-.32.145-.492.234-.827h.513c-.09.321-.152.535-.238.822l1.303-.014-.133.497zm-5.902-.585c-.086.307-.177.645-.25.919h1.364l-.131.493h-1.396c-.388 1.072-1.215 1.713-2.696 1.927l.14-.525c1.196-.186 1.724-.66 2.029-1.402h-2.034l.131-.493h2.066c.082-.269.189-.654.253-.896l-1.918.07.13-.488 3.743-.134-.13.487-1.301.042zm-7.194-.005l.131-.492h3.763l-.132.492h-3.762zm-.445 3.316l.135-.506c1.7-.121 2.706-.617 3.189-1.63h-3.254l.133-.497h3.85c-.602 1.788-1.89 2.494-4.053 2.633zm-.985-2.968c-.351 0-.556-.287-.462-.64.094-.353.452-.636.804-.636.35 0 .561.283.467.636-.094.353-.457.64-.809.64zm.274-1.026a.535.535 0 0 0-.486.386c-.057.214.067.39.28.39a.547.547 0 0 0 .492-.39c.057-.214-.073-.386-.286-.386zm-.307 1.222c-.76 1.634-1.929 2.433-3.946 2.786l.141-.529c1.734-.298 2.789-1.083 3.328-2.429a.694.694 0 0 0 .477.172zm-.621-.409l-2.955.005.133-.497h2.838a.723.723 0 0 0-.016.492zm-4.202 10.682h-2.045l1.459-5.41h2.046l-1.46 5.41zm-6.457-3.89h-2.468l-1.029 3.856H6.419L9.505 9.304h5.468c2.145 0 3.897.988 3.166 3.727-.764 2.868-2.691 3.986-5.224 3.986zm.962-5.298H11.86l-.79 2.965h2.016c.935 0 1.717-.389 1.998-1.442.29-1.086-.288-1.523-1.207-1.523zm10.25 5.857c.293-.052.594-.135.685-.477.096-.363-.208-.498-.538-.498-.631 0-.84.322-.912.549h-1.9a2.216 2.216 0 0 1 1.317-1.452c.583-.249 1.281-.311 1.911-.311 2.562 0 2.256 1.068 1.979 2.106l-.589 2.21c-.108.405-.209.861-.073 1.204H23.92a1.41 1.41 0 0 1 .064-.508h-.021c-.567.497-1.236.643-1.897.643-1.033 0-1.757-.498-1.455-1.629.454-1.702 2.42-1.64 3.516-1.837zm-.9 2.251c.465 0 .901-.28 1.081-.839l.133-.499a4.372 4.372 0 0 1-.875.26c-.482.103-.75.218-.847.581-.066.249.136.497.508.497zm4.574-3.646h.8l.164-.684h2.046l-.164.684h1.094l-.337 1.266h-1.095l-.322 1.219c-.134.498-.078.716.438.716.156 0 .313-.011.473-.032l-.414 1.557c-.414 0-.895.062-1.329.062-.868 0-1.792-.135-1.399-1.608l.507-1.914h-.8l.338-1.266zm4.983-.684h2.046l-.359 1.329h-2.045l.358-1.329zm1.506 2.028l-.899 3.382h-2.045l.899-3.382h2.045zm16.966-2.003l-.191.715h.021c.579-.622 1.239-.85 1.982-.85.579 0 1.118.301 1.223.84.099-.062.719-.84 2.052-.84 1.373 0 1.584.954 1.351 1.826l-.985 3.694h-2.045l.778-2.916c.135-.508.206-.965-.414-.965-.516 0-.8.405-.95.965l-.777 2.916h-2.046l.778-2.916c.136-.508.206-.965-.413-.965-.517 0-.801.405-.951.965l-.778 2.916h-2.044l1.436-5.385h1.973z"/>
</svg>
