<svg xmlns="http://www.w3.org/2000/svg" width="597.332" height="106.666">
    <path fill="#DADBD3" fill-rule="evenodd" d="M0 0h448v80H0V0z"/>
    <path fill="#4EA32D" fill-rule="evenodd" d="M108 28h232c11.046 0 20 8.954 20 20s-8.954 20-20 20H108c-11.046 0-20-8.954-20-20s8.954-20 20-20z"/>
    <path fill="#DDE1F0" fill-rule="evenodd" d="M334.184 45.938h-1.901c-.9 0-1.38-.5-1.38-1.281v-3.44h-2.64c-.24 3.16-1.461 4.34-2.421 5.081l-1.541-1.52c1.741-1.101 2.081-3.061 2.081-5.522h6.462v4.241c0 .22 0 .5.46.5h.4c.36 0 .42-.34.44-.48.1-.58.16-1.72.18-2.34l1.84.4c-.08 3.54-.58 4.361-1.98 4.361zM317.1 42.077h7.742v1.82H317.1v-1.82zm.64-2.821h6.382v1.8h-6.382v-1.8zm-4.576 18.084h-2.821l-.38-2.02h2.24c.34 0 .481-.121.481-.4v-8.902h-5.722v-6.782h7.702V55.64c0 .32 0 1.7-1.5 1.7zm-.52-16.623h-3.721v1.22h3.721v-1.22zm0 2.52h-3.721v1.26h3.721v-1.26zM299.321 57.34h-1.961V39.236h7.602v6.782h-5.641V57.34zm.04-12.843h3.7v-1.26h-3.7v1.26zm0-2.56h3.7v-1.22h-3.7v1.22zm-8.118 5.761c-.52 1.18-1 1.86-1.42 2.421l-1.54-1.201c1.52-1.96 2.08-4.241 2.36-6.001l1.96.24c-.16.76-.36 1.6-.639 2.521 1.3 1.76 2.44 2.48 2.98 2.84l-1.28 1.7c-1.36-1.1-2.221-2.26-2.421-2.52zm-11.762 1.78c0 1.701-.32 4.462-1.86 7.522l-1.761-1.66c.42-.78 1.601-2.961 1.601-6.042v-9.001h7.221v-1.721h2.081v1.721h7.901v1.96h-15.183v7.221zM256.8 40.016h16.384V56.78H256.8V40.016zm2.201 14.624h11.982V42.157h-11.982V54.64zm-8.717-9.823l1.4-.88c.96 1.101 1.56 2.1 2.38 3.661l-1.5.96c-.76-1.6-1.261-2.46-2.28-3.741zm-3.141-.62c-1.821 1.04-3.761 2.781-3.761 5.342 0 3.72 4.481 4.52 6.301 4.7l-1.08 2.241c-4.621-.64-7.561-3.021-7.561-6.742 0-2.32 1.219-4.401 2.76-5.521.64-.48 1.3-.84 2.381-1.42l-10.103 1.14-.2-2.38c1.961-.08 3.301-.16 3.381-.18l13.463-.96.2 2.28c-1.261.04-3.421.14-5.781 1.5zM231.604 57.36h-2.121v-5.601l-6.781 1.48-.32-1.96 7.101-1.541V38.636h2.121v10.642l1.64-.36.24 1.981-1.88.4v6.061zm-7.502-16.463l1.22-1.421c1.701.981 2.681 1.901 3.581 2.821l-1.38 1.56c-.84-.98-1.9-1.98-3.421-2.96zm4.201 6.341l-1.32 1.56c-1.06-1.24-1.94-1.94-3.361-2.84l1.18-1.481c1.36.741 2.641 1.841 3.501 2.761zm-7.502-3.581c.22-.56.68-1.68 1.001-4.041l1.86.361c-.18.94-.64 2.84-1.2 4.18l-1.661-.5zm2.461 3.221h-3.041c.821 1.58 1.561 2.46 2.521 3.48l-1.24 1.841c-.66-.94-1.061-1.52-1.401-2.26v7.421h-1.98v-7.482c-1.2 2.421-2.361 3.661-3.041 4.381l-.76-2.28c.74-.78 2.22-2.281 3.581-5.101H214.6v-1.88h3.521v-6.362h1.98v6.362h3.161v1.88zm-8.662-6.822l1.661-.339c.399 1.18.78 2.9.9 3.98l-1.761.44c-.02-1.72-.48-3.18-.8-4.081zm-6.257 12.883l1.82-.84c1.721 2.321 1.921 2.561 2.781 4.201l-1.86 1.16c-.44-1.06-.821-1.8-2.741-4.521zm2.201-3.161h1.88v1.801H194.54v-1.801h2.001v-2.92h-2.501v-1.801h2.501v-1.84c-.661.5-1.021.7-1.461.92l-1.34-1.68c2.921-1.52 3.861-3.001 4.341-4.041l1.96.56c-.18.4-.34.741-.8 1.401h13.183v1.82h-1.88v2.86h2.4v1.801h-2.4v2.92zm-9.903-7.581h-2.16v2.86h2.16v-2.86zm0 4.661h-2.16v2.92h2.16v-2.92zm3.961-4.661h-2.16v2.86h2.16v-2.86zm0 4.661h-2.16v2.92h2.16v-2.92zm3.961-4.661h-2.16v2.86h2.16v-2.86zm0 4.661h-2.16v2.92h2.16v-2.92zm-20.76-3.121l1.3-1.04c1.041.96 1.781 1.9 2.801 3.361l-1.36 1.12c-.98-1.52-1.521-2.22-2.741-3.441zm-1.28.84c1.1 1.02 1.78 1.901 2.781 3.361l-1.361 1.12c-.94-1.48-1.54-2.26-2.7-3.44l1.28-1.041zm-8.062 3.341c0 .26.12.32 1.181.9 5.16 2.781 7.161 4.201 9.662 6.182l-1.681 1.88c-3.661-3.121-7.141-5.061-10.062-6.702-.98-.559-1.801-1.1-1.801-2.22 0-1.22.761-1.7 2.761-2.941 4.941-3.08 6.901-4.6 8.562-5.901l1.66 1.821c-2.84 2.1-5.261 3.621-9.261 6.061-.701.44-1.021.62-1.021.92zm-11.038-4.321l-1.74.06.08 6.121c.02 1.721-.18 5.442-5.421 7.402l-1.461-1.82c3.181-1.121 3.921-2.521 4.341-3.421-.64.54-1.32.8-2.18.8-1.901 0-3.661-1.5-3.661-3.961 0-2.54 1.9-4 3.921-4 1.32 0 1.8.379 2.3.779l-.04-1.86-5.861.16c-1.781.04-2.38.06-3.701.16l-.04-2.2c1.481.06 2.801.04 3.681.02l5.861-.12-.06-2.521h2.201l.02 2.481 1.74-.04c.46-.02 2.261-.06 3.621-.18l.04 2.18a43.92 43.92 0 0 0-3.641-.04zm-5.941 3.061c-1.1 0-1.981.84-1.981 2.1 0 1.341.921 2.101 1.941 2.101 1.2 0 2.02-.941 2.02-2.121 0-1.46-1.06-2.08-1.98-2.08zm-18.14-.74c3.101-.08 3.441-.08 5.522-.2l.02 2.12c-2.121.08-2.461.1-5.521.16v2.581c2.12.5 3.9 1.36 6.021 2.62l-1.101 2.121a19.196 19.196 0 0 0-4.92-2.561c-.021 1.5-.081 3.741-4.182 3.741-2.76 0-4.34-1.38-4.34-3.141 0-1.76 1.46-3.24 4.92-3.24a9.71 9.71 0 0 1 1.401.099l-.02-2.18c-3.021.04-3.361.04-6.102.02v-2.14c2.341.06 2.701.06 6.102.04l-.02-1.861c-3.201.02-3.561.02-6.762-.02v-2.14c2.921.08 3.281.08 6.742.08l-.02-2.641h2.22l.021 2.621c3.32-.06 3.68-.08 6.341-.18v2.1c-2.801.1-3.141.1-6.341.16l.019 1.841zm-3.741 6.141c-2.36 0-2.68.88-2.68 1.34 0 .541.56 1.201 2.12 1.201 2.121 0 2.121-.88 2.121-2.401-.3-.06-.82-.14-1.561-.14zm-14.698-8.962l1.82-1.1c1.801 2.08 3.501 5.381 3.461 10.222l-2.3.62c.06-4.921-1.521-7.942-2.981-9.742zm-6.842 12.783c-1.96 0-4.4-2.681-4.4-9.542 0-1.941.179-3.721.499-5.621l2.241.38c-.2 1.18-.5 3.02-.5 5.381 0 4.481 1.24 6.881 2.2 6.881 1.061 0 2.021-2.68 2.461-4.181l1.86 1.18c-.46 1.401-1.06 2.721-1.68 3.661-.5.78-1.32 1.861-2.681 1.861zm80.2-3.041c-.8 2.641-1.42 3.621-2.481 4.721l-1.74-1.38c.68-.64 1.501-1.561 2.3-3.861l1.921.52zm3.641-.2c.26 1.28.28 3.741.26 4.501h-2.121c.08-.46.121-.7.121-2.28 0-.38 0-1.221-.121-2.161l1.861-.06zm5.241 4.381l-2.1.12c-.26-2.04-.36-2.741-1.021-4.541l1.881-.18c.36.8 1.16 3.021 1.24 4.601zm41.8-11.542c.94 1.1 1.54 2.12 2.341 3.68l-1.481.98c-.7-1.54-1.28-2.52-2.26-3.76l1.4-.9zm35.559 4.601c-.32-.36-.88-1.001-1.64-2.281-.681 1.32-1.121 1.84-1.581 2.361l-1.56-1.221c1.901-2.12 2.421-4.38 2.621-5.901l1.94.16c-.08.6-.16 1.321-.54 2.481.7 1.34 1.26 2.02 2.1 2.84l-1.34 1.561zm1.64 2.38h-5.801v-1.78h5.801v-7.642h1.961v7.642h5.941v1.78h-5.941v2.3h6.721v1.881h-15.343v-1.881h6.661v-2.3zm16.799-1.86v-1.741h-2.22v-1.66h10.622v1.66h-1.96v2.101h2.34v1.64h-2.34v4.461h-1.9v-4.461h-2.861c-.24 1.04-.88 3.021-2.861 4.421l-1.32-1.42c.62-.48 1.8-1.421 2.2-3.001h-2.34v-1.64h2.621c.019-.14.019-.24.019-.36zm1.861.36h2.681v-2.101h-2.681v2.101zm19.32-4.201h-6.382v-1.8h6.382v1.8zm0 2.9h-6.382v-1.82h6.382v1.82zm0 7.382h-6.382v-6.181h6.382v6.181zm-1.761-4.541h-2.841v2.841h2.841v-2.841zm3.481-2.321l1.64-.66c.581 1.061 1.241 2.021 2.621 3.121 1.64-1.48 2.26-2.92 2.5-3.481h-7.541v-2h9.682v2c-.42 1.041-1.18 2.661-3.001 4.562 2.001 1.079 3.681 1.5 4.501 1.72l-.86 1.94c-.9-.24-2.881-.8-5.121-2.32-2.121 1.64-3.701 2.08-4.781 2.32l-1.12-1.94c1.58-.32 2.8-.78 4.24-1.661-1.84-1.66-2.48-3-2.76-3.601z"/>
    <path fill="#4EA32D" fill-rule="evenodd" d="M368.368 14.115a14.59 14.59 0 0 0-.364-.939c-1.457.225-5.155.533-6.388.575l-.112-1.471c.21-.014.813-.042 1.009-.056.322-.799.966-2.409 1.442-4.595l1.527.183c-.238 1.022-.434 1.554-1.498 4.328 1.176-.07 1.386-.084 3.361-.253-.266-.476-.532-.896-1.148-1.75l1.218-.715c.323.449 1.681 2.284 2.284 3.936l-1.331.757zm-8.041 2.633c.449.393.715.644 1.373 1.289l-.967 1.191a26.281 26.281 0 0 0-1.092-1.107 9.935 9.935 0 0 1-2.479 2.745l-.953-1.218c.841-.547 1.555-1.149 2.367-2.479-1.106-.897-1.554-1.177-2.073-1.471.729-1.877 1.009-3.138 1.177-4.189h-1.317v-1.372h1.485c.084-.827.112-1.289.182-2.438l1.387.126c-.042.715-.056.911-.196 2.312h2.269c-.07 1.092-.308 4.454-1.163 6.611zm-1.316-5.239c-.28 1.485-.477 2.284-.883 3.601.463.279.687.434 1.065.728.63-1.751.812-3.376.896-4.329h-1.078zm-7.052 9.329l-.267-1.414h1.569c.238 0 .336-.084.336-.28V12.91h-4.006V8.162h5.393v11.486c0 .224 0 1.19-1.05 1.19h-1.975zm1.61-11.64h-2.605v.855h2.605v-.855zm0 1.765h-2.605v.883h2.605v-.883zm-9.329 9.875h-1.372V8.162h5.322v4.748h-3.95v7.928zm.028-8.992h2.592v-.883h-2.592v.883zm0-1.793h2.592v-.855h-2.592v.855zm-5.105-2.354h1.541v13.182h-1.541V7.699zm-3.936 11.837c-.392.952-.882 1.345-2.045 1.345h-2.704l-.28-1.499h2.606c.322 0 .742-.098.924-.309.294-.35.35-1.064.56-3.235h-5.785c.393-1.401.729-3.586.813-4.525h5.071V9.562h-5.772V8.19h7.214v4.51h-5.28a34.977 34.977 0 0 1-.323 1.779h5.603c-.013.798-.266 4.216-.602 5.057zm-8.397 1.204c-.546-.392-1.527-1.106-2.703-2.605-1.177 1.471-2.186 2.269-2.732 2.703l-.924-1.26c.574-.406 1.624-1.177 2.745-2.774-.588-1.036-1.541-2.857-1.821-5.799l1.359-.21c.168 2.437.924 3.866 1.331 4.637 1.204-2.2 1.526-4.119 1.681-5.225h-4.609V9.38h-.7v11.458h-1.415v-2.549c-1.359.434-3.544.896-4.581 1.023l-.266-1.387c.196 0 .728-.098.897-.126V9.38h-.813V8.063h7.116v.715h5.855v1.429c-.616 3.936-1.694 5.757-2.241 6.667a9.786 9.786 0 0 0 2.647 2.452l-.826 1.414zm-7.788-11.36h-2.564v1.751h2.564V9.38zm0 3.012h-2.564v1.751h2.564v-1.751zm0 3.04h-2.564v2.115c1.541-.28 1.905-.378 2.564-.575v-1.54zm-8.075-3.362l.981-.617c.672.771 1.092 1.471 1.667 2.564l-1.051.672c-.533-1.121-.883-1.723-1.597-2.619zm-2.199-.434c-1.275.728-2.634 1.947-2.634 3.74 0 2.605 3.138 3.165 4.413 3.291l-.756 1.569c-3.236-.448-5.295-2.115-5.295-4.72 0-1.625.854-3.082 1.932-3.867.449-.336.911-.588 1.667-.994l-7.073.798-.14-1.666c1.372-.056 2.311-.113 2.367-.127l9.427-.672.14 1.597c-.883.028-2.395.098-4.048 1.051zm-21.27-3.278h10.842v12.13h-10.842V8.358zm1.541 10.687h7.746v-3.978h-7.746v3.978zm0-5.406h7.746V9.8h-7.746v3.839zm-4.363 7.004c-1.513-.505-3.278-1.135-5.071-2.774v2.941h-1.414v-2.927c-.897.784-2.102 1.737-5.057 2.745l-.728-1.246c2.899-.883 4.103-1.723 4.734-2.172h-4.749v-1.162h5.8v-.841h-4.819v-1.078h4.819v-.84h-5.114V12.14h2.844c-.056-.225-.252-.869-.378-1.093h-3.152V9.843h2.2c-.098-.211-.547-1.163-.813-1.737l1.457-.421c.35.673.56 1.233.84 2.158h.855V7.784h1.373v2.059h1.218V7.784h1.373v2.059h.91c.266-.575.617-1.555.771-2.158l1.457.421c-.042.126-.35.994-.771 1.737h2.157v1.204h-3.179c-.07.182-.337.939-.393 1.093h3.012v1.149h-5.253v.84h4.931v1.078h-4.931v.841h5.813v1.162h-4.748c1.653 1.233 3.095 1.737 4.818 2.158l-.812 1.275zm-4.314-8.503c.098-.225.21-.532.336-1.093h-3.67c.07.154.322.925.392 1.093h2.942zm-10.597-1.233h-9.679v2.059h-1.443V9.632h1.836c-.463-.714-.743-1.106-.883-1.302l1.317-.645c.294.393.7.939 1.246 1.947h2.284c-.085-.154-.463-.854-.869-1.442l1.345-.617c.602.953.826 1.331 1.149 2.059h1.694c.491-.77.743-1.302 1.023-1.989l1.443.519a9.68 9.68 0 0 1-.869 1.47h1.807v3.334h-1.401v-2.059zm-16.705 4.497c1.695-1.99 2.101-2.816 2.101-3.755 0-1.092-.757-1.849-1.891-1.849-1.653 0-2.48 1.471-2.746 1.92l-.7-1.667c.868-1.149 2.045-1.765 3.488-1.765 1.582 0 3.516.91 3.516 3.32 0 1.582-.659 2.801-4.119 6.499h4.595v1.513h-8.181c1.219-1.219 2.508-2.535 3.937-4.216zm-13.076 3.824h4.524c.589-1.163 1.135-3.18 1.233-3.545l1.443.407c-.518 1.765-.938 2.633-1.191 3.138h2.186v1.302h-8.195v-1.302zm2.227-.322c-.14-.645-.294-1.303-.812-2.69l1.219-.406c.476 1.078.7 1.751.924 2.647l-1.331.449zm-1.246-8.293h6.527v4.763h-6.527v-4.763zm1.331 3.432h3.838v-2.13h-3.838v2.13zm-1.78-5.855h7.565v1.316h-7.565V8.19zm-1.695 5.309h1.793v1.372h-1.834c-.029.336-.043.462-.057.603.547 1.162 1.149 1.946 1.947 2.815l-1.148 1.065c-.35-.476-.616-.869-1.177-2.003-.532 1.737-1.54 2.857-2.241 3.558l-1.05-1.121c1.036-.925 2.226-2.396 2.367-4.917h-2.312v-1.372h2.34v-2.662h-.406c-.407 1.065-.603 1.373-.897 1.807l-1.121-.896c.729-1.135 1.233-2.774 1.415-4.035l1.401.14c-.07.449-.112.729-.364 1.653h2.801v1.331h-1.457v2.662zm-7.976 6.121c-1.177.826-2.158 1.106-2.746 1.274l-.532-1.232a8.975 8.975 0 0 0 2.213-.925c-.952-.952-1.274-1.751-1.457-2.199l1.247-.322c.21.42.505 1.037 1.275 1.737a5.34 5.34 0 0 0 1.372-2.017h-4.37v-1.177h5.855v1.205c-.182.518-.574 1.541-1.779 2.745.841.463 1.597.687 2.368.883l-.743 1.302c-.602-.182-1.639-.518-2.703-1.274zm-3.404 1.274h-1.331v-1.148c-.826.098-3.067.308-4.917.378l-.139-1.302h.91v-4.791h-.91v-1.177h13.237v1.177h-6.85v6.863zm-1.331-6.863h-2.816v.84h2.816v-.84zm0 1.877h-2.816v.84h2.816v-.84zm0 1.877h-2.816v1.008a35.22 35.22 0 0 0 2.816-.196v-.812zm-3.824-9.651h10.702v4.034h-10.702V8.134zm1.471 3.109h7.774v-.658h-7.774v.658zm0-1.428h7.774v-.659h-7.774v.659zm-11.031 10.253a16.92 16.92 0 0 1-2.437-.168l-.308-1.597c.518.098 1.457.266 2.886.266.812 0 4.482 0 4.482-2.465 0-1.765-2.017-1.765-2.423-1.765-.406 0-2.704 0-4.973 2.017l-1.275-.378a64.376 64.376 0 0 1 1.093-5.743l1.513.35c-.505 2.003-.673 2.914-.813 3.698.841-.504 2.326-1.387 4.497-1.387 2.577 0 3.964 1.401 3.964 3.25 0 1.653-1.079 2.816-2.396 3.334-.448.168-1.61.588-3.81.588zM210.681 9.66l.561-1.414c.924.112 3.039.364 5.491 1.232l-.561 1.415c-2.493-.91-4.594-1.134-5.491-1.233zm-7.892 8.167c0 .644-.042 2.451-2.704 2.451-1.947 0-3.151-.966-3.151-2.325 0-1.233 1.036-2.325 2.899-2.325.588 0 1.078.098 1.359.154a70.885 70.885 0 0 1-.112-3.04l1.498.028c.015.925.029 1.177.155 3.404.462.168 1.386.518 2.913 1.555l-.756 1.372c-.687-.476-1.317-.91-2.101-1.274zm-1.513-.617a6.338 6.338 0 0 0-1.569-.224c-.84 0-1.359.378-1.359.939 0 .658.7 1.009 1.569 1.009 1.387 0 1.387-.785 1.387-1.079 0-.112 0-.196-.028-.645zm-.154-6.121l.672-1.289c1.569.617 2.606 1.121 3.796 1.793l-.686 1.387c-.967-.63-2.255-1.387-3.782-1.891zm-.855.42c-.658.099-1.792.225-2.507.266-.477 1.317-1.429 3.853-2.605 6.304l-1.513-.672c.42-.813 1.415-2.69 2.465-5.533-.63.013-1.401.028-2.031.013l-.056-1.568c1.121.07 1.639.07 2.619.042.379-1.205.477-1.541.673-2.227l1.624.308c-.098.294-.546 1.541-.63 1.807a24.533 24.533 0 0 0 2.032-.28l-.071 1.54zm-10.568 2.578a7.946 7.946 0 0 1-.994 1.695l-1.079-.841c1.064-1.373 1.457-2.969 1.653-4.202l1.372.168a20.11 20.11 0 0 1-.448 1.765c.911 1.233 1.709 1.737 2.087 1.989l-.896 1.191c-.953-.77-1.555-1.583-1.695-1.765zm-8.236 1.246c0 1.191-.225 3.124-1.303 5.267l-1.233-1.162c.295-.547 1.121-2.074 1.121-4.231V8.904h5.057V7.699h1.457v1.205h5.532v1.373h-10.631v5.056zm-15.527-6.625h11.472v11.738h-11.472V8.708zm1.541 10.239h8.39v-8.74h-8.39v8.74zm-5.554-11.248h1.541v13.182h-1.541V7.699zm-3.936 11.837c-.392.952-.882 1.345-2.045 1.345h-2.704l-.28-1.499h2.606c.322 0 .742-.098.924-.309.294-.35.351-1.064.561-3.235h-5.786c.393-1.401.729-3.586.813-4.525h5.071V9.562h-5.772V8.19h7.215v4.51h-5.281a36.484 36.484 0 0 1-.322 1.779h5.603c-.014.798-.267 4.216-.603 5.057zm-8.397 1.204c-.546-.392-1.527-1.106-2.703-2.605-1.177 1.471-2.185 2.269-2.732 2.703l-.924-1.26c.574-.406 1.624-1.177 2.745-2.774-.588-1.036-1.541-2.857-1.821-5.799l1.359-.21c.168 2.437.925 3.866 1.331 4.637 1.204-2.2 1.526-4.119 1.681-5.225h-4.609V9.38h-.7v11.458h-1.415v-2.549c-1.359.434-3.544.896-4.58 1.023l-.267-1.387c.197 0 .729-.098.897-.126V9.38h-.812V8.063h7.115v.715h5.855v1.429c-.616 3.936-1.694 5.757-2.241 6.667a9.786 9.786 0 0 0 2.648 2.452l-.827 1.414zm-7.788-11.36h-2.563v1.751h2.563V9.38zm0 3.012h-2.563v1.751h2.563v-1.751zm0 3.04h-2.563v2.115c1.54-.28 1.905-.378 2.563-.575v-1.54zm-7.529 5.477h-1.863l-.168-1.457h1.429c.084 0 .336 0 .336-.323v-2.493h-3.501v4.146h-1.387v-4.146h-3.418c-.126 1.247-.378 2.676-1.485 4.174l-1.149-1.288c.35-.462 1.387-1.849 1.387-4.497V8.344h11.024v11.36c0 .378-.112 1.205-1.205 1.205zm-5.154-11.15h-3.25v2.044h3.25V9.759zm0 3.445h-3.25v2.06h3.25v-2.06zm4.888-3.445h-3.501v2.044h3.501V9.759zm0 3.445h-3.501v2.06h3.501v-2.06zm-14.434 6.5c0 1.134-1.008 1.19-1.19 1.19h-2.34l-.378-1.442h2.199c.252 0 .28-.056.28-.364v-1.793h-9.049v-1.191h9.049v-.784h-7.886v-4.665h4.763v-.728h-5.926V8.75h5.926V7.699h1.387V8.75h5.84v1.177h-5.84v.728h4.678v4.665h-1.513v.784h2.675v1.191h-2.675v2.409zm-4.552-7.97h-3.404v.812h3.404v-.812zm0 1.736h-3.404v.785h3.404v-.785zm4.678-1.736h-3.291v.812h3.291v-.812zm0 2.521v-.785h-3.291v.785h3.291zm-17.237 5.365h-4.356V8.512h4.44c4.076 0 5.575 2.605 5.575 5.561 0 2.199-.84 5.547-5.659 5.547zm-.28-9.595h-2.423v8.082h2.423c2.115 0 4.272-.588 4.272-4.048 0-3.572-2.325-4.034-4.272-4.034zm-10.963 3.207h4.776v1.499h-4.776v4.889h-1.667V8.512h6.892v1.513h-5.225v3.207zm-6.62 6.612c-3.894 0-5.939-2.647-5.939-5.757 0-3.572 2.647-5.799 5.911-5.799 1.275 0 2.395.322 3.46 1.022l-.547 1.527c-.616-.546-1.582-1.037-2.927-1.037-2.717 0-4.231 1.975-4.231 4.273 0 2.115 1.304 4.258 4.371 4.258 1.373 0 2.437-.434 3.334-1.106v1.807c-1.051.56-2.241.812-3.432.812zm30.142-.294l-1.261.952c-.798-1.092-1.947-2.017-2.255-2.269l1.064-.882c.532.392 1.821 1.428 2.452 2.199zm70.238-3.796c-.225-.252-.617-.7-1.149-1.597-.476.925-.784 1.288-1.106 1.653l-1.093-.855c1.33-1.485 1.695-3.068 1.835-4.132l1.358.112c-.056.42-.111.924-.378 1.737.49.939.883 1.415 1.471 1.989l-.938 1.093zm1.148 1.666h-4.062v-1.246h4.062v-5.351h1.373v5.351h4.16v1.246h-4.16v1.612h4.706v1.316h-10.743v-1.316h4.664V17.42zm78.007-2.087h-3.6V11.72h8.783v3.613h-3.67l-.322.925h5.155v4.314h-11.164v-4.314h4.468c.154-.294.28-.588.35-.925zm3.782-1.134v-1.345h-5.967v1.345h5.967zm-7.172 5.099h8.307v-1.807h-8.307v1.807zm49.285-6.766c.658.77 1.078 1.485 1.639 2.578l-1.037.686c-.49-1.079-.897-1.765-1.583-2.634l.981-.63zm36.747 3.586v-1.219h-1.555v-1.162h7.438v1.162h-1.373v1.471h1.639v1.149h-1.639v3.124h-1.331v-3.124h-2.003c-.168.728-.616 2.115-2.003 3.096l-.924-.995c.434-.336 1.261-.995 1.541-2.101h-1.639V16.37h1.835c.014-.098.014-.168.014-.252zm1.302.252h1.877v-1.471h-1.877v1.471zm20.892 4.16h-6.78v-5.911h6.78v5.911zm-1.401-4.664h-4.006v3.39h4.006v-3.39z"/>
</svg>
