<svg xmlns="http://www.w3.org/2000/svg" width="149.333" height="32.001">
    <path fill="none" d="M0 0h112.001v24H0V0z" opacity=".4"/>
    <path fill="#DDE1F0" fill-rule="evenodd" d="M106.78 17.327c-.374 2.221-2.576 3.95-4.878 3.95h-3.061l1.311-7.901h3.061c2.312 0 3.93 1.729 3.567 3.951zm-4.25-2.211h-.507l-.737 4.422h.484c1.289 0 2.499-.671 2.764-2.211.231-1.415-.617-2.211-2.004-2.211zm-6.034 0l-.22 1.32h2.367l-.286 1.74H95.99l-.517 3.101h-2.159l1.311-7.901h4.767l-.286 1.74h-2.61zm-5.174.042c-1.321 0-2.367.964-2.576 2.19-.199 1.247.55 2.148 1.894 2.148.704 0 1.464-.325 2.003-.838l-.418 2.462c-.749.21-1.288.367-1.96.367-1.156 0-2.191-.419-2.929-1.163-.781-.786-1.024-1.813-.826-2.986.177-1.08.782-2.117 1.696-2.893.947-.796 2.213-1.278 3.381-1.278.693 0 1.299.146 1.904.398l-.418 2.463c-.342-.566-1.013-.87-1.751-.87zm-6.167 3.32l-4.201-.54-.791 2.962h-1.405l1.661-6.228h1.405l-.511 1.917 4.205.526-.363 1.363zm-13.029-.097l.397-1.487h6.261l-.397 1.487h-6.261zm-3.751 1.308l.355-1.328c.583-.07.927-.353 1.095-.775l-1.64.159-.452 3.162h-1.301l.455-3.052-.905.09.33-1.238.749-.07.12-.865h1.289l-.112.755 3.259-.291c-.596 2.235-1.506 3.141-3.242 3.453zm-4.826-3.557c-.058.194-.195.706-.266.921h1.867l-.34 1.273h-1.997c-.611 1.487-1.94 2.442-4.544 2.574l.354-1.329c1.751-.083 2.479-.616 2.806-1.245h-2.873l.339-1.273h3.01c.071-.187.196-.657.255-.879l-2.88.083.335-1.26 6.02-.179-.34 1.273-1.746.041zM50.936 9.749l-5.824 4.242 8.304-10.508 4.287 3.724 3.619-1.472-6.564 7.552-3.822-3.538zm7.017-1.364l-2.896-.416 1.087-1.636-1.63 1.09-.414-2.908-.413 2.908-1.629-1.09 1.086 1.636-2.895.416 2.895.415-1.086 1.637 1.629-1.091.413 2.909.414-2.909 1.63 1.091L55.057 8.8l2.896-.415zM44.282 19.402c.351 0 .863-.176 1.093-1.037l.758-2.843h2.045l-1.437 5.385h-1.972l.183-.685h-.021c-.526.54-1.149.82-1.964.82-.961 0-1.681-.592-1.352-1.826l.985-3.694h2.045l-.752 2.822c-.166.623-.21 1.058.389 1.058zm-4.194 1.505h-2.046l.753-2.823c.166-.622.21-1.058-.389-1.058-.351 0-.863.176-1.093 1.038l-.758 2.843H34.51l1.436-5.385h1.973l-.183.684h.021c.526-.539 1.148-.819 1.964-.819.961 0 1.681.591 1.352 1.826l-.985 3.694zM38.754 10.68l-1.325.014c-.459 1.495-1.485 2.466-3.101 2.735l.138-.516c1.255-.218 2.076-1.007 2.448-2.214l-2.186.018.132-.497 2.214-.018c.095-.32.146-.492.235-.827h.513c-.09.321-.152.535-.238.822l1.303-.014-.133.497zm-5.902-.585c-.086.307-.177.645-.25.919h1.363l-.13.493h-1.397c-.387 1.072-1.214 1.713-2.695 1.927l.14-.525c1.196-.186 1.724-.66 2.029-1.402h-2.034l.131-.493h2.067c.081-.269.188-.654.252-.896l-1.918.07.13-.488 3.743-.134-.13.487-1.301.042zm-7.194-.005l.131-.492h3.762l-.131.492h-3.762zm-.445 3.316l.135-.506c1.7-.121 2.706-.617 3.189-1.63h-3.254l.133-.497h3.85c-.602 1.788-1.89 2.494-4.053 2.633zm-.985-2.968c-.35 0-.556-.287-.461-.64.093-.353.451-.636.802-.636.352 0 .563.283.468.636-.094.353-.457.64-.809.64zm.274-1.026a.535.535 0 0 0-.486.386c-.057.214.066.39.279.39a.547.547 0 0 0 .493-.39c.057-.214-.073-.386-.286-.386zm-.307 1.222c-.76 1.634-1.929 2.433-3.946 2.786l.141-.529c1.734-.298 2.789-1.083 3.328-2.429a.694.694 0 0 0 .477.172zm-.621-.409l-2.955.005.132-.497h2.838a.734.734 0 0 0-.015.492zm-4.202 10.682h-2.045l1.459-5.41h2.045l-1.459 5.41zm-6.457-3.89h-2.468l-1.028 3.856H6.418L9.505 9.304h5.468c2.145 0 3.898.988 3.167 3.727-.765 2.868-2.693 3.986-5.225 3.986zm.962-5.298H11.86l-.791 2.965h2.017c.935 0 1.717-.389 1.998-1.442.29-1.086-.288-1.523-1.207-1.523zm10.25 5.857c.293-.052.594-.135.685-.477.097-.363-.208-.498-.539-.498-.63 0-.839.322-.911.549h-1.9a2.216 2.216 0 0 1 1.317-1.452c.583-.249 1.281-.311 1.911-.311 2.562 0 2.257 1.068 1.979 2.106l-.589 2.21c-.108.405-.21.861-.074 1.204H23.92a1.43 1.43 0 0 1 .063-.508h-.02c-.567.497-1.236.643-1.897.643-1.033 0-1.757-.498-1.455-1.629.454-1.702 2.42-1.64 3.516-1.837zm-.9 2.251c.465 0 .901-.28 1.081-.839l.133-.499a4.372 4.372 0 0 1-.875.26c-.482.103-.75.218-.847.581-.067.249.136.497.508.497zm4.573-3.646h.801l.164-.684h2.046l-.164.684h1.095l-.338 1.266h-1.095l-.323 1.219c-.132.498-.077.716.439.716.156 0 .313-.011.473-.032l-.414 1.557c-.414 0-.895.062-1.329.062-.867 0-1.792-.135-1.399-1.608l.508-1.914h-.801l.337-1.266zm4.985-.684h2.045l-.359 1.329h-2.045l.359-1.329zm1.505 2.028l-.899 3.382h-2.045l.899-3.382h2.045zm16.966-2.003l-.191.715h.021c.579-.622 1.238-.85 1.983-.85.578 0 1.118.301 1.222.84.099-.062.719-.84 2.052-.84 1.373 0 1.583.954 1.351 1.826l-.985 3.694h-2.045l.778-2.916c.135-.508.205-.965-.414-.965-.516 0-.8.405-.95.965l-.777 2.916h-2.045l.777-2.916c.136-.508.206-.965-.413-.965-.517 0-.8.405-.95.965l-.779 2.916h-2.044l1.436-5.385h1.973z"/>
</svg>
