<svg xmlns="http://www.w3.org/2000/svg" width="200" height="32" viewBox="0 0 200 32"><title>アセット 1</title><path fill="none" d="M0 0h200v32h-200zM0 0h200v32h-200z"/><path d="M131.368 19.33v-.383a2.552 2.552 0 0 0 0-3.596v-.41a2.749 2.749 0 0 0-1.737-2.556 2.751 2.751 0 0 0-2.462-1.541h-9.797a2.278 2.278 0 0 0-1.735.824 2.772 2.772 0 0 0-1.414-1.289 2.665 2.665 0 0 0-2.349-1.522h-10.702a2.818 2.818 0 0 0-2.694 2.916 3.066 3.066 0 0 0 .452 1.627 2.799 2.799 0 0 0-1.33 1.371 5.755 5.755 0 0 0-.606-.432 5.775 5.775 0 0 0-3.672-2.212 2.777 2.777 0 0 0-2.334-1.265 2.745 2.745 0 0 0-2.611 1.773l-.231.115a2.799 2.799 0 0 0-2.194-1.072 2.922 2.922 0 0 0-1.593.466 2.696 2.696 0 0 0-1.277-1.043 2.66 2.66 0 0 0-2.351-1.524h-6.956a2.992 2.992 0 0 0-2.589-1.459 3.086 3.086 0 0 0-2.697 1.459h-.432a2.814 2.814 0 0 0-2.68 2.918 2.878 2.878 0 0 0 1.774 2.706.328.328 0 0 0 .032.054c-.128.467-.25.881-.37 1.262a5.853 5.853 0 0 0-1.976-2.162 6.773 6.773 0 0 0-5.596-2.481 24.779 24.779 0 0 0-6.507 1.034 2.784 2.784 0 0 0-1.358-1.158 2.776 2.776 0 0 0-1.399-1.324 2.922 2.922 0 0 0-.881-.575 2.976 2.976 0 0 0-2.68-1.606 2.87 2.87 0 0 0-2.751 1.926h-3.539l-.059.005a3.088 3.088 0 0 0-.587-.338 2.996 2.996 0 0 0-2.71-1.612 2.875 2.875 0 0 0-2.977 2.744v12.964a2.71 2.71 0 0 0 1.715 2.456 2.988 2.988 0 0 0 2.713 1.611 3.05 3.05 0 0 0 2.52-1.28 6.381 6.381 0 0 0 3.9 1.152c3.601 0 5.285-1.429 6.099-2.89a2.771 2.771 0 0 0 2.332-1.868l-.007.066a2.849 2.849 0 0 0 1.779 2.695 2.61 2.61 0 0 0 2.314 1.518h2.487c5.513 0 7.306-2.872 7.819-5.421l.262.121a2.87 2.87 0 0 0 1.24 1.249l-.01.095a2.954 2.954 0 0 0 1.799 2.781 2.676 2.676 0 0 0 2.356 1.525h2.589c3.149 0 6.75-.627 8.364-3.185a2.973 2.973 0 0 0 .761.467 2.811 2.811 0 0 0 3.5 1.391.231.231 0 0 1 .032.012 2.714 2.714 0 0 0 2.683 1.559 2.883 2.883 0 0 0 1.958-.874l.13.005c2.984 0 6.543-1.183 6.543-6.831v-.435l-.005-.123a2.562 2.562 0 0 0 1.76.733l1.551-.218a24.37 24.37 0 0 1 5.571-.522l.476.009c-.476.42-1.585.805-4.243.805h-2.263a2.88 2.88 0 0 0-2.749 2.978 2.995 2.995 0 0 0 1.821 2.809 2.695 2.695 0 0 0 2.371 1.53h2.57c4.977 0 8.181-1.332 9.593-3.962a2.164 2.164 0 0 0 .353.176l.137.24a2.751 2.751 0 0 0 1.566 1.614 2.678 2.678 0 0 0 2.41 1.528h8.255a2.758 2.758 0 0 0 2.754-2.754v-2.528a2.656 2.656 0 0 0-.567-1.59 2.73 2.73 0 0 0 .336-1.248zm-78.14 2.903l.01-.052a3.416 3.416 0 0 0-1.905-3.249l-.096-1.359a2.846 2.846 0 0 0 1.127.846 2.766 2.766 0 0 0 2.437 1.542 5.298 5.298 0 0 0 1.473-.303 14.516 14.516 0 0 1 4.028-.705h.081c-.002.688-.081 1.374-2.265 1.374h-2.407a2.663 2.663 0 0 0-2.484 1.906z" fill="#1d1d49"/><path d="M45.806 20.213c-.015 1.667-.577 2.212-2.599 2.212-1.215 0-1.843-.466-1.843-1.331 0-.93.817-1.397 1.897-1.397a7.074 7.074 0 0 1 2.545.516zm4.192.624c0-1.349-.756-1.573-1.829-2.119l-.31-4.428h1.141a1.08 1.08 0 0 0 .918-1.172 1.074 1.074 0 0 0-.918-1.156h-1.296l-.069-1.027a1.125 1.125 0 0 0-1.217-.899 1.03 1.03 0 0 0-1.124.899l.069 1.027h-5.235a1.074 1.074 0 0 0-.913 1.156 1.08 1.08 0 0 0 .913 1.172h5.375l.223 3.528a10.644 10.644 0 0 0-2.437-.286c-2.984 0-4.143 1.699-4.143 3.561 0 2.18 1.271 3.644 4.045 3.644 2.844 0 4.604-.964 4.978-3.226a2.112 2.112 0 0 0 .8.399 1.013 1.013 0 0 0 1.029-1.073zm-12.036 3.096v-12.964a1.218 1.218 0 0 0-2.376 0v12.964a1.224 1.224 0 0 0 2.376 0zM58.2 24.256h-2.487a1.095 1.095 0 0 1 0-2.136h2.406c2.71 0 4.062-1.026 4.062-3.242 0-2.101-1.159-3.063-3.323-3.063-2.66 0-4.955 1.01-5.508 1.01a.982.982 0 0 1-.94-.963c0-.672.258-1.077.77-1.218a23.644 23.644 0 0 1 6.063-.98c2.963 0 5.167 1.686 5.167 5.07 0 3.993-2.423 5.522-6.21 5.522zM74.252 24.607h-2.585a1.195 1.195 0 0 1 0-2.325h2.199c4.092 0 5.28-1.012 5.28-2.393 0-1.154-.805-1.891-3.004-1.891a8.627 8.627 0 0 0-6.126 2.263 1.421 1.421 0 0 1-.878.335c-.78 0-1.37-.416-1.37-1.108 0-.434.95-2.374 1.637-5.872h-1.347a1.028 1.028 0 0 1-.884-1.123 1.029 1.029 0 0 1 .884-1.122h1.733c.076-.851.383-1.462 1.396-1.462a1.098 1.098 0 0 1 1.188.946 4.157 4.157 0 0 1-.049.516h8.406a1.036 1.036 0 0 1 .901 1.122 1.035 1.035 0 0 1-.901 1.123h-8.853a38.084 38.084 0 0 1-1.002 3.674 10.877 10.877 0 0 1 5.572-1.524c3.851 0 5.231 1.67 5.231 4.188 0 3.176-2.395 4.653-7.429 4.653zM94.347 18.927c0 2.279-.761 2.967-2.717 2.983a10.151 10.151 0 0 0 .339-2.679v-3.336a2.312 2.312 0 0 1 2.378 2.614zm2.086.016v-.434c0-3.274-1.833-4.636-4.464-4.75v-.336a1.015 1.015 0 0 0-1.969 0v.512a4.924 4.924 0 0 0-3.053 2.361v-2.024a1.029 1.029 0 0 0-2.006 0v8.377a1.028 1.028 0 0 0 2.006 0v-3.24a4.367 4.367 0 0 1 3.053-3.293v3.114a8.553 8.553 0 0 1-.262 2.31 2.85 2.85 0 0 0-1.168-.4c-.511 0-.721.499-.721.978 0 .739.442.915 1.009 1.222a1.238 1.238 0 0 0-.368.736c0 .497.378.77 1.104.77.354 0 .783-.321 1.188-.913a7.432 7.432 0 0 0 .898.047c3.399 0 4.752-1.62 4.752-5.037zM111.874 12.909h-10.702a1.039 1.039 0 0 1-.898-1.137 1.035 1.035 0 0 1 .898-1.123h10.702a1.039 1.039 0 0 1 .893 1.123 1.044 1.044 0 0 1-.893 1.137zm-6.796 11.813h-2.561a1.121 1.121 0 0 1-.95-1.208 1.106 1.106 0 0 1 .95-1.183h2.263c5.005 0 6.386-1.396 6.386-3.437 0-1.537-1.122-2.313-4.057-2.313-4.753 0-6.085.742-7.125.742a1.062 1.062 0 0 1-.902-1.14 1.165 1.165 0 0 1 .881-1.268 37.609 37.609 0 0 1 7.099-.737c4.393 0 6.656 1.347 6.656 4.715 0 3.611-2.231 5.828-8.639 5.828zM126.31 15.113h-4.035a9.603 9.603 0 0 0 .183-1.08h3.629a.226.226 0 0 1 .223.218zm2.562.691a.644.644 0 0 0-.55-.691h-.192v-1.52a.952.952 0 0 0-.961-.958h-9.797a.719.719 0 0 0 0 1.397h3.313c-.052.372-.106.732-.189 1.08h-3.456a.713.713 0 0 0 0 1.385h3.043a9.304 9.304 0 0 1-.455 1.026h-2.242a.734.734 0 0 0 0 1.428h1.347a10.133 10.133 0 0 1-1.948 1.958.738.738 0 0 0-.26.582.914.914 0 0 0 1.654.627v1.233a.956.956 0 0 0 .964.964h8.257a.954.954 0 0 0 .962-.964v-2.53a.956.956 0 0 0-.962-.966h-7.189c.203-.29.398-.597.577-.904h6.381a.958.958 0 0 0 .961-.968v-1.486h.192a.646.646 0 0 0 .55-.694zm-2.562 1.489a.23.23 0 0 1-.223.231h-4.58c.142-.335.27-.678.395-1.026h4.407zm.212 5.367a.229.229 0 0 1-.212.233h-6.062a.237.237 0 0 1-.236-.233v-1.167a.232.232 0 0 1 .236-.218h6.062a.223.223 0 0 1 .212.218z" fill="#fff"/><path d="M144.984 27.236a13.461 13.461 0 0 1-4.493-.73 10.634 10.634 0 0 1-3.623-2.127 9.76 9.76 0 0 1-2.402-3.377 10.949 10.949 0 0 1-.857-4.382 10.949 10.949 0 0 1 .855-4.381 9.75 9.75 0 0 1 2.4-3.379 10.643 10.643 0 0 1 3.621-2.128 13.451 13.451 0 0 1 4.496-.732 11.78 11.78 0 0 1 1.857.154 10.564 10.564 0 0 1 1.92.5 8.916 8.916 0 0 1 1.845.929 7.434 7.434 0 0 1 1.623 1.455l.589.706-4.686 3.648-.552-.639a3.281 3.281 0 0 0-1.227-.888 4.529 4.529 0 0 0-1.776-.32 4.732 4.732 0 0 0-1.887.372 4.485 4.485 0 0 0-1.49 1.037 4.878 4.878 0 0 0-.997 1.607 6.022 6.022 0 0 0-.001 4.127 5.037 5.037 0 0 0 .991 1.603 4.368 4.368 0 0 0 3.245 1.402 4.172 4.172 0 0 0 1.927-.424 3.663 3.663 0 0 0 1.354-1.185l.514-.733 5.042 3.583-.547.73a8.282 8.282 0 0 1-3.5 2.721 11.022 11.022 0 0 1-4.238.853z" fill="#1f1f99"/><path d="M148.251 12.171a4.19 4.19 0 0 0-1.551-1.124 5.383 5.383 0 0 0-2.128-.392 5.58 5.58 0 0 0-2.237.445 5.341 5.341 0 0 0-1.784 1.242 5.734 5.734 0 0 0-1.18 1.896 6.902 6.902 0 0 0 .001 4.773 5.89 5.89 0 0 0 1.167 1.883 5.256 5.256 0 0 0 3.898 1.686 5.02 5.02 0 0 0 2.333-.523 4.57 4.57 0 0 0 1.674-1.465l3.569 2.536a7.371 7.371 0 0 1-3.129 2.433 10.099 10.099 0 0 1-3.898.786 12.514 12.514 0 0 1-4.2-.679 9.697 9.697 0 0 1-3.322-1.948 8.829 8.829 0 0 1-2.183-3.072 10.021 10.021 0 0 1-.784-4.028 10.022 10.022 0 0 1 .782-4.028 8.829 8.829 0 0 1 2.181-3.074 9.712 9.712 0 0 1 3.321-1.949 12.509 12.509 0 0 1 4.199-.681 10.809 10.809 0 0 1 1.716.143 9.631 9.631 0 0 1 1.757.458 7.995 7.995 0 0 1 1.661.837 6.512 6.512 0 0 1 1.428 1.281z" fill="#cccce5"/><path fill="#1f1f99" d="M153.344 6.469l16.52-.004.001 5.545-10.459.001v1.988l9.801-.002.001 5.545-9.8.002.001 7.218-6.06.002-.005-20.295z"/><path d="M154.233 7.358l14.741-.003.001 3.766-10.459.002.001 3.766 9.8-.002.001 3.766-9.8.002.002 7.218-4.282.001z" fill="#cccce5"/><path d="M170.979 6.465l7.312-.002a20.208 20.208 0 0 1 4.638.52 11.322 11.322 0 0 1 3.975 1.748 8.897 8.897 0 0 1 2.76 3.205 10.22 10.22 0 0 1 1.02 4.724 9.377 9.377 0 0 1-.992 4.373 9.526 9.526 0 0 1-2.646 3.171 11.733 11.733 0 0 1-3.77 1.913 15.098 15.098 0 0 1-4.403.641l-7.889.002zm6.064 14.749l1.334-.001a11.714 11.714 0 0 0 2.563-.266 5.179 5.179 0 0 0 1.888-.811 3.713 3.713 0 0 0 1.188-1.423 5.112 5.112 0 0 0 .443-2.261 4.12 4.12 0 0 0-.432-1.95 3.883 3.883 0 0 0-1.177-1.357 5.602 5.602 0 0 0-1.837-.842 9.04 9.04 0 0 0-2.333-.296v-.889l-.003.889h-1.637z" fill="#1f1f99"/><path d="M171.868 7.354l6.423-.002a19.227 19.227 0 0 1 4.433.496 10.392 10.392 0 0 1 3.665 1.607 7.98 7.98 0 0 1 2.485 2.889 9.304 9.304 0 0 1 .921 4.315 8.462 8.462 0 0 1-.891 3.962 8.607 8.607 0 0 1-2.401 2.877 10.805 10.805 0 0 1-3.486 1.766 14.155 14.155 0 0 1-4.145.602l-7 .002zm4.286 14.749l2.224-.001a12.542 12.542 0 0 0 2.759-.288 6.034 6.034 0 0 0 2.209-.955 4.624 4.624 0 0 0 1.468-1.753 5.955 5.955 0 0 0 .534-2.654 4.973 4.973 0 0 0-.536-2.367 4.8 4.8 0 0 0-1.441-1.66 6.461 6.461 0 0 0-2.128-.98 9.887 9.887 0 0 0-2.566-.326l-2.526.001z" fill="#cccce5"/><path fill="#e60000" d="M0 32l44.003-31.912-44.003-.088v32z"/><path d="M3.325 19.621a16.027 16.027 0 0 1 1.757-1.464 5.022 5.022 0 0 1 2.912-1.197 3.042 3.042 0 0 1 2.582 1.394 3.472 3.472 0 0 1 .677 3.031 5.599 5.599 0 0 1-2.247 2.765 15.518 15.518 0 0 1-1.609 1.046zm4.752 3.633a3.286 3.286 0 0 0 .493-.321 2.248 2.248 0 0 0 .587-3.478 2.081 2.081 0 0 0-3.213-.417 3.711 3.711 0 0 0-.58.502zM15.474 15.656l-2.218 1.62.984 1.348 2.478-1.81.769 1.053-3.846 2.809-4.146-5.676 3.721-2.718.769 1.053-2.353 1.718.861 1.179 2.218-1.62zM21.928 11.291c-.525-.663-1.155-1.468-1.758-2.294l-.027.02c.341.862.682 1.853.935 2.688l.884 2.751-1.064.777-2.249-1.728c-.682-.521-1.478-1.18-2.163-1.817l-.018.013c.524.793 1.137 1.688 1.609 2.428l1.467 2.234-1.261.921-3.761-5.957 1.816-1.326 1.974 1.464c.668.52 1.373 1.09 1.992 1.657l.027-.02c-.309-.781-.651-1.681-.916-2.456l-.734-2.357 1.78-1.3 4.477 5.435-1.333.974zM29.385 4.734a3.447 3.447 0 0 1-.777 5.152 3.366 3.366 0 0 1-4.946-.818 3.497 3.497 0 0 1 .762-5.116 3.366 3.366 0 0 1 4.96.782zm-4.301 3.257c.812 1.112 1.939 1.49 2.851.824.921-.673.846-1.884.04-2.987-.744-1.019-1.903-1.516-2.842-.83-.921.673-.855 1.89-.049 2.994z" fill="#fff"/></svg>