<svg xmlns="http://www.w3.org/2000/svg" width="218.668" height="15.999">
    <path fill="none" d="M0 0h164v12H0V0z"/>
    <path fill-rule="evenodd" d="M161.757 4.074c.013-.933-.296-1.547-1.37-1.547-.679 0-1.37.331-1.37 1.252 0 1.877 3.999 1.606 3.999 4.31 0 1.795-1.296 2.373-2.765 2.373-2.628.024-2.628-1.901-2.604-2.715h1.123v.247c0 1.158.765 1.524 1.493 1.524.901 0 1.593-.366 1.593-1.382 0-1.889-3.999-1.677-3.999-4.239 0-1.512 1.123-2.314 2.616-2.314 1.63 0 2.543.756 2.469 2.491h-1.185zm-9.689-2.314h4.592v.944h-3.456v2.74h3.209v.944h-3.209V9.34h3.53v.945h-4.666V1.76zm-2.624 0h1.137v8.525h-1.137V1.76zm-3.379 8.525h-1.136V2.704h-2.345V1.76h5.826v.944h-2.345v7.581zm-5.638-8.525h1.135v8.525h-1.135V1.76zm-1.51 6.294c.011.365.136 1.7.308 2.231h-1.185c-.321-.59-.247-1.7-.345-2.834-.087-1.039-.964-1.086-1.347-1.086h-1.332v3.92h-1.136V1.76h3.074c1.58 0 2.135 1.063 2.135 2.125 0 1.004-.581 1.771-1.629 1.949v.023c1.024.154 1.395.484 1.457 2.197zm-.988-4.051c0-.614-.321-1.299-1.198-1.299h-1.715V5.42h1.704c.814 0 1.209-.673 1.209-1.417zm-8.249 6.459c-1.889 0-2.802-.932-2.802-3.294V1.76h1.135v5.455c0 1.866.593 2.338 1.667 2.338 1.073 0 1.666-.472 1.666-2.338V1.76h1.135v5.408c0 2.362-.913 3.294-2.801 3.294zm-6.534-.909c.345 0 1.394-.118 1.406-1.783h1.174c.048 2.692-1.938 2.692-2.519 2.692-1.111 0-2.814-.071-2.814-3.377V4.676c0-2.408 1.111-3.093 2.864-3.093 1.765 0 2.443.873 2.333 2.526h-1.173c.012-.484-.024-.968-.259-1.239-.235-.272-.765-.366-1-.366-.938 0-1.308.543-1.345.661-.037.094-.26.307-.26 1.771v2.279c0 2.09.717 2.338 1.593 2.338zm-8.317-7.793h4.592v.944h-3.456v2.74h3.209v.944h-3.209V9.34h3.53v.945h-4.666V1.76zm-3.989 8.702c-2.629.024-2.629-1.901-2.605-2.715h1.124v.247c0 1.158.764 1.524 1.493 1.524.901 0 1.592-.366 1.592-1.382 0-1.889-3.999-1.677-3.999-4.239 0-1.512 1.124-2.314 2.617-2.314 1.629 0 2.542.756 2.468 2.491h-1.184c.012-.933-.297-1.547-1.37-1.547-.679 0-1.37.331-1.37 1.252 0 1.877 3.998 1.606 3.998 4.31 0 1.795-1.295 2.373-2.764 2.373zm-4.565.263h-2.676a.048.048 0 0 1-.032-.013l-4.881-4.59-1.839 1.18v3.375a.049.049 0 0 1-.048.048H94.39a.048.048 0 0 1-.047-.048v-9.19c0-.026.021-.047.047-.047h2.409c.026 0 .048.021.048.047v3.816l6.13-3.856a.048.048 0 0 1 .026-.007h2.809c.022 0 .039.013.045.034a.047.047 0 0 1-.02.053l-5.529 3.554 5.999 5.561a.048.048 0 0 1-.032.083zM92.696 5.17H89.91a.046.046 0 0 1-.044-.031c-.522-1.419-2.182-2.411-4.038-2.411-2.323 0-4.211 1.504-4.211 3.355 0 1.849 1.888 3.354 4.211 3.354 1.79 0 3.388-.907 3.975-2.259a.048.048 0 0 1 .043-.028h2.797c.015 0 .03.007.038.02a.05.05 0 0 1 .006.043c-.72 1.993-3.24 3.446-6.271 3.614a10.52 10.52 0 0 1-.588.017c-3.894 0-7.061-2.136-7.061-4.761 0-2.626 3.167-4.762 7.061-4.762 3.323 0 6.225 1.587 6.908 3.775a.042.042 0 0 1 .009.027c0 .026-.023.045-.048.047h-.001zm-17.991 5.555a.048.048 0 0 1-.047-.048V6.875c0-.018.01-.035.027-.043l2.542-1.19a.048.048 0 0 1 .02-.004c.008 0 .017.002.025.007a.047.047 0 0 1 .022.04v4.992a.048.048 0 0 1-.047.048h-2.542zm.02-5.085a.042.042 0 0 1-.02.005.052.052 0 0 1-.025-.007.047.047 0 0 1-.022-.04V1.84c0-.019.01-.036.027-.043l2.063-.949a.079.079 0 0 1 .02-.004h.479c.026 0 .047.022.047.048v3.483c0 .018-.01.035-.027.043L74.725 5.64zm-10.881 5.085a.048.048 0 0 1-.047-.048v-9.19c0-.026.021-.047.047-.047h2.41c.026 0 .047.021.047.047V9.26h6.853c.027 0 .047.021.047.047v1.37c0 .026-.02.048-.047.048h-9.31zm-1.532-5.612h-2.715a.048.048 0 0 1-.044-.03c-.546-1.435-2.237-2.436-4.113-2.436-2.37 0-4.298 1.541-4.298 3.436 0 1.894 1.928 3.435 4.298 3.435 1.812 0 3.438-.917 4.047-2.282a.049.049 0 0 1 .044-.028h2.725c.015 0 .03.007.038.021.01.012.012.029.006.044-.804 2.102-3.625 3.57-6.86 3.57-3.905 0-7.083-2.135-7.083-4.76 0-2.626 3.178-4.762 7.083-4.762 3.299 0 6.207 1.568 6.917 3.73a.047.047 0 0 1-.006.043.048.048 0 0 1-.039.019zm-22.946 5.731c-4.346 0-7.871-2.132-7.871-4.761 0-2.63 3.525-4.762 7.871-4.762 4.348 0 7.871 2.132 7.871 4.762 0 2.629-3.523 4.761-7.871 4.761zm0-8.197c-2.638 0-4.777 1.538-4.777 3.436 0 1.897 2.139 3.435 4.777 3.435 2.639 0 4.778-1.538 4.778-3.435 0-1.898-2.139-3.436-4.778-3.436zm-7.735 8.072h-2.724a.082.082 0 0 1-.074-.055l-1.412-4.898-2.596 4.28a.113.113 0 0 1-.087.05h-1.254a.113.113 0 0 1-.088-.05L20.8 5.766l-1.412 4.898a.08.08 0 0 1-.073.055H16.59c-.032 0-.05-.025-.04-.055l2.873-9.163a.084.084 0 0 1 .075-.055h1.023a.12.12 0 0 1 .09.049l3.499 5.466 3.5-5.466a.12.12 0 0 1 .09-.049h1.023c.031 0 .066.025.075.055l2.873 9.163c.01.03-.008.055-.04.055zm-22.776.125c-4.347 0-7.871-2.132-7.871-4.761 0-2.63 3.524-4.762 7.871-4.762 2.943 0 5.511.978 6.861 2.427a.038.038 0 0 1 .005.006c.008.01.013.022.013.037a.057.057 0 0 1-.057.058h-3.172a.058.058 0 0 1-.032-.01l-.009-.007c-.877-.726-2.168-1.185-3.609-1.185-2.639 0-4.778 1.538-4.778 3.436 0 1.897 2.139 3.435 4.778 3.435 2.206 0 4.062-1.075 4.612-2.537H8.855a.746.746 0 0 1-.744-.748c0-.413.333-.749.743-.749H16.617c.027 0 .05.02.056.046v.001c.035.181.053.365.053.552 0 2.629-3.524 4.761-7.871 4.761z"/>
</svg>
