<?xml version="1.0" encoding="utf-8"?>
<!-- Generator: Adobe Illustrator 16.0.0, SVG Export Plug-In . SVG Version: 6.00 Build 0)  -->
<!DOCTYPE svg PUBLIC "-//W3C//DTD SVG 1.1//EN" "http://www.w3.org/Graphics/SVG/1.1/DTD/svg11.dtd">
<svg version="1.1" id="Layer_1" xmlns="http://www.w3.org/2000/svg" xmlns:xlink="http://www.w3.org/1999/xlink" x="0px" y="0px"
	 width="100%" height="100%" viewBox="0 0 38 38" enable-background="new 0 0 38 38" xml:space="preserve">
<g>
	
	<path fill="#ffffff" d="M31.75,3.417H6.25C3.902,3.417,2,5.32,2,7.667c0,2.346,1.902,4.25,4.25,4.25h25.5
		c2.348,0,4.25-1.904,4.25-4.25C36,5.32,34.098,3.417,31.75,3.417z M31.75,9.083H6.25c-0.782,0-1.417-0.633-1.417-1.415
		c0-0.783,0.635-1.417,1.417-1.417h25.5c0.782,0,1.417,0.635,1.417,1.417C33.167,8.45,32.532,9.083,31.75,9.083z"/>
	
	<path fill="url(#SVGID_1_)" d="M31.75,14.751H6.25C3.902,14.751,2,16.653,2,19s1.902,4.25,4.25,4.25h25.5
		c2.348,0,4.25-1.903,4.25-4.25S34.098,14.751,31.75,14.751z M31.75,20.417H6.25c-0.782,0-1.417-0.635-1.417-1.417
		c0-0.781,0.635-1.417,1.417-1.417h25.5c0.782,0,1.417,0.635,1.417,1.417C33.167,19.782,32.532,20.417,31.75,20.417z"/>
	
	<path fill="url(#SVGID_1_)" d="M31.75,26.083H6.25c-2.348,0-4.25,1.904-4.25,4.251c0,2.348,1.902,4.249,4.25,4.249h25.5
		c2.348,0,4.25-1.901,4.25-4.249C36,27.987,34.098,26.083,31.75,26.083z M31.75,31.75H6.25c-0.782,0-1.417-0.635-1.417-1.417
		c0-0.783,0.635-1.416,1.417-1.416h25.5c0.782,0,1.417,0.633,1.417,1.416C33.167,31.115,32.532,31.75,31.75,31.75z"/>
</g>
</svg>
