<svg version="1.1" id="Layer_1" xmlns="http://www.w3.org/2000/svg" xmlns:xlink="http://www.w3.org/1999/xlink" x="0px" y="0px"
	 width="100%" height="100%" viewBox="0 0 38 38" enable-background="new 0 0 38 38" xml:space="preserve">
<g>
	<path fill="url(#SVGID_1_)" d="M31.363,2h-13.91c-2.562,0-4.635,2.075-4.635,4.637v6.181H6.635C4.076,12.818,2,14.893,2,17.454
		v13.91C2,33.925,4.076,36,6.635,36h13.91c2.56,0,4.637-2.075,4.637-4.636v-6.182h6.182c2.562,0,4.637-2.075,4.637-4.637V6.637
		C36,4.075,33.925,2,31.363,2z M22.09,31.364c0,0.854-0.691,1.545-1.545,1.545H6.635c-0.853,0-1.545-0.692-1.545-1.545v-13.91
		c0-0.853,0.692-1.545,1.545-1.545h6.183v4.636c0,2.562,2.074,4.637,4.635,4.637h4.637V31.364z M32.908,20.545
		c0,0.854-0.691,1.547-1.545,1.547h-13.91c-0.853,0-1.545-0.693-1.545-1.547V6.637c0-0.853,0.692-1.546,1.545-1.546h13.91
		c0.854,0,1.545,0.693,1.545,1.546V20.545z"/>
</g>
</svg>
