<?xml version="1.0" encoding="utf-8"?>
<!-- Generator: Adobe Illustrator 16.0.0, SVG Export Plug-In . SVG Version: 6.00 Build 0)  -->
<!DOCTYPE svg PUBLIC "-//W3C//DTD SVG 1.1//EN" "http://www.w3.org/Graphics/SVG/1.1/DTD/svg11.dtd">
<svg version="1.1" id="Layer_1" xmlns="http://www.w3.org/2000/svg" xmlns:xlink="http://www.w3.org/1999/xlink" x="0px" y="0px"
	 width="38px" height="38px" viewBox="0 0 38 38" enable-background="new 0 0 38 38" xml:space="preserve">
<g>
	<path fill="url(#SVGID_1_)" d="M8.955,2C6.393,2,4.318,4.075,4.318,6.637v24.726C4.318,33.925,6.393,36,8.955,36h24.727V2H8.955z
		 M30.591,32.908H15.137h-1.814H8.955c-0.853,0-1.546-0.691-1.546-1.546c0-0.853,0.693-1.546,1.546-1.546h4.368h1.814h15.455V32.908
		z M30.591,26.727H8.955c-0.542,0-1.061,0.099-1.546,0.271V6.637c0-0.854,0.693-1.546,1.546-1.546h21.637V26.727z"/>
</g>
</svg>
