<svg version="1.1" id="Layer_1" xmlns="http://www.w3.org/2000/svg" xmlns:xlink="http://www.w3.org/1999/xlink" x="0px" y="0px"
	 width="100%" height="100%" viewBox="0 0 38 38" enable-background="new 0 0 38 38" xml:space="preserve">
<g>
	<path fill="url(#SVGID_1_)" d="M31.779,23.25c2.329,0,4.221-1.889,4.221-4.221c0-2.331-1.892-4.22-4.221-4.22h-0.737
		c-0.155-0.446-0.333-0.883-0.536-1.306l0.536-0.536c1.646-1.647,1.646-4.318,0-5.969c-1.649-1.646-4.321-1.646-5.97,0L24.552,7.52
		c-0.42-0.205-0.856-0.384-1.303-0.541V6.219c0-2.331-1.89-4.22-4.221-4.22s-4.22,1.889-4.22,4.22v0.738
		c-0.446,0.155-0.884,0.333-1.306,0.535l-0.535-0.535c-1.648-1.648-4.319-1.648-5.97,0C5.351,8.605,5.351,11.277,7,12.926
		l0.519,0.521c-0.213,0.439-0.398,0.894-0.562,1.362H6.22c-2.332,0-4.22,1.89-4.22,4.22c0,2.332,1.89,4.221,4.22,4.221h0.757
		c0.158,0.446,0.339,0.88,0.543,1.302L7,25.074c-1.648,1.647-1.648,4.319,0,5.968c1.648,1.648,4.319,1.648,5.968,0l0.535-0.534
		c0.423,0.201,0.859,0.377,1.306,0.534v0.738c0,2.33,1.889,4.22,4.221,4.22c2.33-0.001,4.22-1.891,4.22-4.22v-0.759
		c0.445-0.157,0.882-0.337,1.303-0.541l0.521,0.521c1.648,1.647,4.32,1.647,5.97,0c1.646-1.647,1.646-4.32,0-5.969l-0.536-0.536
		c0.193-0.404,0.364-0.818,0.515-1.246H31.779L31.779,23.25z M29.017,27.013c0.554,0.554,0.554,1.45,0,2.004
		c-0.554,0.552-1.45,0.552-2.003,0l-2.075-2.074c-1.298,0.971-2.842,1.63-4.522,1.871v2.935c0,0.783-0.634,1.417-1.416,1.417
		s-1.418-0.634-1.418-1.417v-2.935c-1.679-0.241-3.223-0.901-4.521-1.873l-2.074,2.076c-0.554,0.552-1.451,0.552-2.004,0
		c-0.554-0.554-0.554-1.45,0-2.004l2.074-2.075c-0.972-1.297-1.631-2.841-1.872-4.522H6.25c-0.782,0-1.416-0.635-1.416-1.416
		c0-0.782,0.634-1.417,1.416-1.417h2.936c0.239-1.68,0.9-3.224,1.872-4.522l-2.075-2.075c-0.554-0.553-0.553-1.451,0-2.004
		c0.554-0.553,1.451-0.553,2.003,0l2.075,2.075c1.298-0.971,2.843-1.632,4.521-1.872V6.25c0-0.783,0.636-1.416,1.418-1.416
		c0.782-0.001,1.418,0.633,1.416,1.416v2.936c1.68,0.24,3.225,0.9,4.522,1.872l2.075-2.075c0.553-0.553,1.449-0.553,2.003,0
		c0.554,0.553,0.554,1.451,0,2.004l-2.074,2.074c0.971,1.298,1.632,2.842,1.871,4.523h2.936c0.782,0,1.417,0.635,1.417,1.417
		c0,0.781-0.635,1.416-1.417,1.416h-2.936c-0.239,1.68-0.9,3.225-1.871,4.522L29.017,27.013z"/>

	<path fill="url(#SVGID_1_)" d="M19,13.333c-3.131,0-5.666,2.536-5.666,5.667c0,3.13,2.535,5.667,5.666,5.667
		c3.129,0,5.666-2.537,5.666-5.667C24.666,15.87,22.129,13.333,19,13.333z M19,21.833c-1.564,0-2.834-1.269-2.834-2.833
		s1.27-2.833,2.834-2.833s2.832,1.269,2.832,2.833S20.564,21.833,19,21.833z"/>
</g>
</svg>
