<?xml version="1.0" encoding="utf-8"?>
<!-- Generator: Adobe Illustrator 16.0.0, SVG Export Plug-In . SVG Version: 6.00 Build 0)  -->
<!DOCTYPE svg PUBLIC "-//W3C//DTD SVG 1.1//EN" "http://www.w3.org/Graphics/SVG/1.1/DTD/svg11.dtd">
<svg version="1.1" id="Layer_1" xmlns="http://www.w3.org/2000/svg" xmlns:xlink="http://www.w3.org/1999/xlink" x="0px" y="0px"
	 width="100%" height="100%" viewBox="0 0 38 38" enable-background="new 0 0 38 38" xml:space="preserve">
<g>
	<path fill="url(#SVGID_1_)" d="M29.2,22.401L29.2,22.401h-3.4v-6.8h3.4c3.755,0,6.8-3.046,6.8-6.801C36,5.046,32.955,2,29.2,2
		c-3.756,0-6.801,3.046-6.801,6.8v3.4h-6.799V8.8c0-3.754-3.046-6.8-6.801-6.8S2,5.046,2,8.8c0,3.755,3.045,6.801,6.8,6.801h3.399
		v6.8H8.8l0,0l0,0c-3.755,0-6.8,3.045-6.8,6.8C2,32.955,5.045,36,8.8,36c3.756,0,6.801-3.045,6.801-6.799l0,0V25.8h6.799v3.392
		c0,0.003,0,0.006,0,0.009c0,3.754,3.045,6.799,6.801,6.799c3.755,0,6.8-3.045,6.8-6.799C36,25.446,32.955,22.401,29.2,22.401z
		 M29.2,5.4c1.878,0,3.4,1.523,3.4,3.4c0,1.877-1.522,3.4-3.4,3.4h-3.4V8.8C25.8,6.923,27.323,5.4,29.2,5.4z M5.399,8.8
		c0-1.877,1.522-3.4,3.4-3.4c1.879,0,3.399,1.523,3.399,3.4v3.4H8.8C6.922,12.2,5.399,10.677,5.399,8.8z M8.8,32.601
		c-1.878,0-3.4-1.524-3.4-3.4c0-1.878,1.522-3.401,3.4-3.401l0,0h3.399v3.401C12.199,31.077,10.679,32.601,8.8,32.601z
		 M15.601,22.401v-6.8h6.799v6.8H15.601z M29.2,32.601c-1.877,0-3.4-1.524-3.4-3.4l0,0V25.8h3.4c1.878,0,3.4,1.522,3.4,3.401
		C32.601,31.077,31.078,32.601,29.2,32.601z"/>
</g>
</svg>
