<svg version="1.1" id="Layer_1" xmlns="http://www.w3.org/2000/svg" xmlns:xlink="http://www.w3.org/1999/xlink" x="0px" y="0px"
	 width="100%" height="100%" viewBox="0 0 38 38" enable-background="new 0 0 38 38" xml:space="preserve">
<g>
	
	<path fill="url(#SVGID_1_)" d="M18.999,2C9.61,2,2,9.611,2,19c0,9.389,7.61,17,16.999,17C28.387,36,36,28.389,36,19
		C36,9.611,28.387,2,18.999,2z M18.999,32.909C11.318,32.909,5.09,26.681,5.09,19S11.318,5.091,18.999,5.091
		c7.683,0,13.908,6.228,13.908,13.909S26.682,32.909,18.999,32.909z"/>
	
	<path fill="url(#SVGID_1_)" d="M21.185,19l3.279-3.278c0.603-0.604,0.603-1.583,0-2.186c-0.604-0.603-1.584-0.603-2.187,0
		l-3.278,3.278l-3.277-3.278c-0.604-0.603-1.582-0.603-2.187,0c-0.604,0.603-0.604,1.583,0,2.186L16.813,19l-3.278,3.278
		c-0.604,0.604-0.604,1.583,0,2.186c0.604,0.604,1.583,0.604,2.187,0l3.277-3.279l3.278,3.279c0.603,0.604,1.582,0.604,2.187,0
		c0.603-0.604,0.603-1.583,0-2.186L21.185,19z"/>
</g>
</svg>
