<?xml version="1.0" encoding="utf-8"?>
<!-- Generator: Adobe Illustrator 16.0.0, SVG Export Plug-In . SVG Version: 6.00 Build 0)  -->
<!DOCTYPE svg PUBLIC "-//W3C//DTD SVG 1.1//EN" "http://www.w3.org/Graphics/SVG/1.1/DTD/svg11.dtd">
<svg version="1.1" id="Layer_1" xmlns="http://www.w3.org/2000/svg" xmlns:xlink="http://www.w3.org/1999/xlink" x="0px" y="0px"
	 width="38px" height="38px" viewBox="0 0 38 38" enable-background="new 0 0 38 38" xml:space="preserve">
<g>
	<path fill="url(#SVGID_1_)" d="M27.499,6.25H10.5L2,14.751V27.5c0,2.349,1.967,4.25,4.315,4.25h25.434
		c2.349,0,4.251-1.901,4.251-4.25V14.795L27.499,6.25z M11.673,9.083h14.706l5.617,5.695l-7.329-0.027
		c0,2.833-2.538,5.666-5.668,5.666c-3.129,0-5.666-2.833-5.666-5.666H6.005L11.673,9.083z M33.166,27.5
		c0,0.78-0.635,1.417-1.417,1.417H6.315c-0.803,0-1.482-0.648-1.482-1.417v-9.916h6.02h0.085c1.225,3.23,4.472,5.666,8.018,5.666
		c3.542,0,6.767-2.432,7.993-5.657l6.217,0.024V27.5z"/>
</g>
</svg>
