<svg version="1.1" id="Layer_1" xmlns="http://www.w3.org/2000/svg" xmlns:xlink="http://www.w3.org/1999/xlink" x="0px" y="0px"
	 width="100%" height="100%" viewBox="0 0 38 38" enable-background="new 0 0 38 38" xml:space="preserve">
<g>
	<path fill="url(#SVGID_1_)" d="M29.818,2H15.909c-5.121,0-9.272,4.152-9.272,9.272c0,5.122,4.151,9.274,9.272,9.274h6.183v13.909
		c0,0.853,0.691,1.545,1.546,1.545c0.853,0,1.544-0.692,1.544-1.545V20.546v-3.091V5.091h3.091v29.364
		c0,0.853,0.692,1.545,1.546,1.545s1.545-0.692,1.545-1.545V3.546C31.363,2.692,30.672,2,29.818,2z M9.728,11.272
		c0-3.413,2.768-6.181,6.182-6.181h6.183v12.364h-6.183C12.495,17.455,9.728,14.687,9.728,11.272z"/>
</g>
</svg>
