<svg version="1.1" id="Layer_1" xmlns="http://www.w3.org/2000/svg" xmlns:xlink="http://www.w3.org/1999/xlink" x="0px" y="0px"
	 width="100%" height="100%" viewBox="0 0 38 38" enable-background="new 0 0 38 38" xml:space="preserve">
<g>
	
	<path fill="url(#SVGID_1_)" d="M31.364,5.091H6.636C4.075,5.091,2,7.167,2,9.727v18.546c0,2.561,2.075,4.636,4.636,4.636h24.729
		c2.561,0,4.636-2.076,4.636-4.636V9.727C36,7.167,33.925,5.091,31.364,5.091z M31.364,8.183c0.178,0,0.344,0.034,0.502,0.09
		L19,18.567L6.133,8.272c0.159-0.056,0.325-0.09,0.503-0.09H31.364z M31.364,29.819H6.636c-0.854,0-1.545-0.692-1.545-1.546V11.398
		l12.943,10.355c0.281,0.225,0.625,0.338,0.966,0.338s0.684-0.113,0.965-0.338l12.944-10.355v16.875
		C32.909,29.127,32.218,29.819,31.364,29.819z"/>
</g>
</svg>
